<?xml version="1.0" encoding="iso-8859-1" standalone="no"?> 
<?xml-stylesheet href="green_buddhism.css" type="text/css"?> 
<svg xmlns="http://www.w3.org/2000/svg" xmlns:xlink="http://www.w3.org/1999/xlink" width="17.39049pt" height="17.39047pt" viewBox="-0.17717 -0.17686 17.39049 17.39047 "> 
<g transform="translate(0, 17.21361 ) scale(1,-1) translate(0,0.17686 )"> 

</p>
<g>
 <g stroke="rgb(0.0%,0.0%,0.0%)">
 <g fill="rgb(0.0%,0.0%,0.0%)">
 <g stroke-width="0.4pt">
 <g>
 <path d=" M  16.68398 8.78552 C  16.56635 8.78104 16.07588 8.7621 15.44485 8.73967 C  15.39052 10.48918 14.6942 12.07472 13.58269 13.26947 C  14.04025 13.69414 14.39565 14.02411 14.48137 14.10287 C  14.78044 14.3775 14.48038 14.85251 14.10306 14.48218 C  13.99739 14.37799 13.67091 14.03308 13.2592 13.59396 C  12.07092 14.71394 10.49388 15.41376 8.75533 15.4621 C  8.77426 16.06172 8.78723 16.53673 8.78574 16.68428 C  8.78075 17.21361 8.23346 17.09001 8.2504 16.68428 C  8.25539 16.56714 8.27333 16.08267 8.29677 15.45811 C  6.55872 15.38983 4.98564 14.67458 3.80832 13.53864 C  3.36272 14.01762 3.01431 14.39246 2.93306 14.48218 C  2.65843 14.78073 2.18343 14.48018 2.55475 14.10287 C  2.66193 13.99321 3.02977 13.6453 3.49332 13.21066 C  2.4122 12.02287 1.73682 10.45927 1.68349 8.73618 C  1.0071 8.7606 0.47527 8.78004 0.35216 8.78552 C  -0.05356 8.80298 -0.17717 8.25468 0.35216 8.2507 C  0.50867 8.2492 1.03102 8.26366 1.68398 8.28459 C  1.7408 6.56747 2.4157 5.00986 3.49332 3.82558 C  3.02977 3.39093 2.66193 3.04301 2.55424 2.93336 C  2.18343 2.55505 2.65843 2.2555 2.93306 2.55455 C  3.01431 2.64328 3.36272 3.0186 3.80832 3.49759 C  4.98564 2.36166 6.55872 1.64641 8.29677 1.57811 C  8.27333 0.95357 8.25539 0.46909 8.2504 0.35196 C  8.23346 -0.05374 8.78075 -0.17686 8.78574 0.35196 C  8.78723 0.4995 8.77426 0.97401 8.75533 1.57463 C  10.49388 1.62248 12.07092 2.32228 13.2592 3.44228 C  13.67091 3.00365 13.99739 2.65773 14.10306 2.55455 C  14.48088 2.18372 14.78044 2.65823 14.48137 2.93336 C  14.39565 3.01213 14.04025 3.34209 13.58269 3.76675 C  14.69072 4.95753 15.38554 6.53807 15.44435 8.2816 C  16.05295 8.26216 16.53494 8.2492 16.68398 8.2507 C  17.21332 8.25468 17.08969 8.80298 16.68398 8.78552 Z M  15.00323 8.72272 C  13.71129 8.67587 12.09634 8.61707 11.62682 8.60011 C  11.6064 9.39711 11.28639 10.12035 10.77399 10.65816 C  11.11891 10.97865 12.31018 12.08618 13.25871 12.96841 C  14.29994 11.84943 14.9519 10.36308 15.00323 8.72272 Z M  8.56442 5.77895 C  7.0686 5.77895 5.85143 7.0081 5.85143 8.51836 C  5.85143 10.02814 7.0686 11.25728 8.56442 11.25728 C  10.06024 11.25728 11.27692 10.02814 11.27692 8.51836 C  11.27692 7.0081 10.06024 5.77895 8.56442 5.77895 Z M  12.95665 13.27147 C  12.06844 12.32195 10.9609 11.12868 10.6434 10.78625 C  10.10808 11.2852 9.3993 11.59521 8.61824 11.60867 C  8.63469 12.05379 8.6965 13.7046 8.74037 15.01999 C  10.36826 14.97513 11.84464 14.31969 12.95665 13.27147 Z M  8.31271 15.01599 C  8.36105 13.70062 8.42087 12.04431 8.43681 11.6052 C  7.65427 11.57278 6.94649 11.24532 6.42163 10.72743 C  6.17142 10.9961 5.02602 12.22723 4.10889 13.21416 C  5.21092 14.27982 6.68431 14.9517 8.31271 15.01599 Z M  3.8158 12.90811 C  4.8062 11.9825 6.03932 10.8386 6.30002 10.59735 C  5.81952 10.06601 5.51996 9.3662 5.50102 8.59662 C  5.19698 8.60759 3.4973 8.6694 2.1256 8.71973 C  2.17444 10.33218 2.80597 11.79608 3.8158 12.90811 Z M  2.12659 8.29955 C  3.50229 8.34541 5.19997 8.40921 5.50203 8.42018 C  5.52594 7.65855 5.8235 6.96622 6.30002 6.43889 C  6.03983 6.19714 4.8067 5.05373 3.8158 4.12811 C  2.80995 5.23615 2.17943 6.69359 2.12659 8.29955 Z M  4.10938 3.82208 C  5.0265 4.80899 6.17142 6.04013 6.42163 6.30928 C  6.94649 5.79141 7.65427 5.46393 8.43681 5.43103 C  8.42087 4.99191 8.36105 3.33461 8.31271 2.02023 C  6.6848 2.08453 5.21143 2.75642 4.10938 3.82208 Z M  8.74037 2.01674 C  8.6965 3.33162 8.63469 4.98245 8.61824 5.42755 C  9.3993 5.44101 10.10808 5.75154 10.6434 6.25047 C  10.9609 5.90755 12.06844 4.7143 12.95665 3.76476 C  11.84464 2.71655 10.36826 2.0611 8.74037 2.01674 Z M  13.25871 4.06781 C  12.30968 4.94955 11.11792 6.05807 10.77348 6.37807 C  11.2819 6.9114 11.6009 7.62715 11.62582 8.41719 C  12.09386 8.39973 13.7068 8.33893 15.00224 8.29605 C  14.94691 6.66269 14.29596 5.18233 13.25871 4.06781 Z  " />
 <path d=" M  10.0039 9.87212 L  7.42001 9.87212 C  7.33826 9.87212 7.27196 9.80583 7.27196 9.7246 L  7.27196 7.21394 C  7.27196 7.13222 7.33826 7.06592 7.42001 7.06592 L  10.0039 7.06592 C  10.08615 7.06592 10.15144 7.13222 10.15144 7.21394 L  10.15144 9.7246 C  10.15144 9.80583 10.08615 9.87212 10.0039 9.87212 Z M  9.85687 7.3615 C  9.60965 7.3615 7.81427 7.3615 7.56754 7.3615 C  7.56754 7.60672 7.56754 9.33182 7.56754 9.57654 C  7.81427 9.57654 9.60965 9.57654 9.85687 9.57654 C  9.85687 9.33182 9.85687 7.60672 9.85687 7.3615 Z  " />
 <path d=" M  12.87192 9.63785 C  13.11665 9.63785 13.31503 9.83673 13.31503 10.08147 C  13.31503 10.3257 13.11665 10.52408 12.87192 10.52408 C  12.62718 10.52408 12.42882 10.3257 12.42882 10.08147 C  12.42882 9.83673 12.62718 9.63785 12.87192 9.63785 Z  " />
 <path d=" M  4.4538 7.07887 C  4.20857 7.07887 4.01068 6.88 4.01068 6.63577 C  4.01068 6.39104 4.20857 6.19215 4.4538 6.19215 C  4.69853 6.19215 4.89691 6.39104 4.89691 6.63577 C  4.89691 6.88 4.69853 7.07887 4.4538 7.07887 Z  " />
 <path d=" M  12.54445 6.28737 C  12.71739 6.11389 12.99753 6.1144 13.17047 6.28737 C  13.34395 6.45982 13.34395 6.74094 13.17047 6.9139 C  12.99753 7.08685 12.7169 7.08635 12.54445 6.9139 C  12.37099 6.74094 12.37099 6.45982 12.54445 6.28737 Z  " />
 <path d=" M  4.78177 10.42987 C  4.60832 10.60283 4.3282 10.60283 4.15474 10.42987 C  3.98178 10.25691 3.98178 9.9758 4.15474 9.80284 C  4.3282 9.62988 4.60832 9.63037 4.78177 9.80284 C  4.95473 9.9758 4.95473 10.25691 4.78177 10.42987 Z  " />
 <path d=" M  10.3862 4.59216 C  10.14148 4.59216 9.9426 4.39429 9.9426 4.14955 C  9.9426 3.90431 10.14148 3.70644 10.38571 3.70644 C  10.63045 3.70644 10.82932 3.90482 10.82932 4.14955 C  10.82932 4.39429 10.63045 4.59216 10.3862 4.59216 Z  " />
 <path d=" M  6.93951 12.12357 C  7.18425 12.12457 7.38362 12.32245 7.38362 12.56718 C  7.38362 12.81192 7.18425 13.0098 6.94 13.0098 C  6.69577 13.0098 6.4964 12.81192 6.4964 12.56718 C  6.4964 12.32245 6.69577 12.12457 6.93951 12.12357 Z  " />
 <path d=" M  7.21864 4.47653 C  7.04518 4.64949 6.76456 4.65 6.5916 4.47653 C  6.41864 4.30408 6.41864 4.02295 6.5921 3.85 C  6.76456 3.67754 7.04518 3.67754 7.21864 3.85 C  7.3911 4.02396 7.3911 4.30408 7.21864 4.47653 Z  " />
 <path d=" M  10.10709 12.2392 C  10.28055 12.06674 10.56116 12.06575 10.73413 12.2392 C  10.90659 12.41216 10.90659 12.69328 10.73413 12.86624 C  10.56116 13.03871 10.28055 13.03871 10.10709 12.86624 C  9.93462 12.69278 9.93462 12.41266 10.10709 12.2392 Z  " />
 </g>
 </g>
 </g>
 </g>
 </g>
      </g> 
</svg> 
