<?xml version="1.0" encoding="UTF-8" standalone="no"?>
<!-- Created with Inkscape (http://www.inkscape.org/) -->

<svg
   xmlns:dc="http://purl.org/dc/elements/1.1/"
   xmlns:cc="http://creativecommons.org/ns#"
   xmlns:rdf="http://www.w3.org/1999/02/22-rdf-syntax-ns#"
   xmlns:svg="http://www.w3.org/2000/svg"
   xmlns="http://www.w3.org/2000/svg"
   xmlns:sodipodi="http://sodipodi.sourceforge.net/DTD/sodipodi-0.dtd"
   xmlns:inkscape="http://www.inkscape.org/namespaces/inkscape"
   width="210mm"
   height="297mm"
   viewBox="0 0 210 297"
   version="1.1"
   id="svg84"
   inkscape:version="0.92.3 (2405546, 2018-03-11)"
   sodipodi:docname="fromDebtToRiches.svg">
  <defs
     id="defs78" />
  <sodipodi:namedview
     id="base"
     pagecolor="#ffffff"
     bordercolor="#666666"
     borderopacity="1.0"
     inkscape:pageopacity="0.0"
     inkscape:pageshadow="2"
     inkscape:zoom="0.94495734"
     inkscape:cx="388.57143"
     inkscape:cy="559.40657"
     inkscape:document-units="mm"
     inkscape:current-layer="layer1"
     showgrid="false"
     inkscape:window-width="1918"
     inkscape:window-height="1038"
     inkscape:window-x="0"
     inkscape:window-y="20"
     inkscape:window-maximized="1" />
  <metadata
     id="metadata81">
    <rdf:RDF>
      <cc:Work
         rdf:about="">
        <dc:format>image/svg+xml</dc:format>
        <dc:type
           rdf:resource="http://purl.org/dc/dcmitype/StillImage" />
        <dc:title></dc:title>
      </cc:Work>
    </rdf:RDF>
  </metadata>
  <g
     inkscape:label="Layer 1"
     inkscape:groupmode="layer"
     id="layer1">
    <g
       id="layer1-3"
       inkscape:label="1"
       style="display:inline"
       transform="matrix(0.16972196,0,0,0.16209038,79.136551,104.4858)" />
    <g
       id="layer2"
       inkscape:label="2"
       style="display:inline"
       transform="matrix(0.16972196,0,0,0.16209038,79.136551,104.4858)">
      <path
         id="use3854"
         style="fill:#ffffff;fill-opacity:1;fill-rule:nonzero;stroke:#000000;stroke-width:1.38499999;stroke-opacity:1"
         d="M 178.30247,1005.5815 V 845.96054 c 0,-36.55552 -15.26244,-38.60955 -11.08,-58.06201 5.17906,-24.0877 42.41562,-34.0116 42.41562,-58.49461 V -399.06812 c 0,-38.8456 -31.27003,-70.11562 -70.11563,-70.11562 -38.84559,0 -70.115613,31.27002 -70.115613,70.11562 V 729.40392 c 0,24.48301 37.236553,34.40691 42.415613,58.49461 4.18244,19.45246 -11.08,21.50649 -11.08,58.06201 v 159.62096 c 0,21.4794 17.30066,38.78 38.78001,38.78 21.47934,0 38.78,-17.3006 38.78,-38.78 z"
         inkscape:connector-curvature="0"
         sodipodi:nodetypes="ssssscssssscs" />
      <text
         xml:space="preserve"
         style="font-style:normal;font-variant:normal;font-weight:normal;font-stretch:normal;line-height:0%;font-family:Verdana;text-align:start;writing-mode:lr-tb;text-anchor:start;fill:#000000;fill-opacity:1;stroke:none"
         x="157.84795"
         y="397.91748"
         id="text3349"
         transform="scale(1.006272,0.9937671)"><tspan
           sodipodi:role="line"
           id="tspan3351"
           x="157.84795"
           y="397.91748"
           style="font-size:28.79293633px;line-height:1.25">1k</tspan></text>
      <path
         style="display:inline;fill:none;stroke:#000000;stroke-width:1px;stroke-linecap:butt;stroke-linejoin:miter;stroke-opacity:1"
         d="M 69.214347,-236.68232 H 112.56136"
         id="path3365"
         inkscape:connector-curvature="0" />
      <path
         style="display:inline;fill:none;stroke:#000000;stroke-width:1px;stroke-linecap:butt;stroke-linejoin:miter;stroke-opacity:1"
         d="M 69.214347,-159.19424 H 112.56136"
         id="path3367"
         inkscape:connector-curvature="0" />
      <path
         style="display:inline;fill:none;stroke:#000000;stroke-width:1px;stroke-linecap:butt;stroke-linejoin:miter;stroke-opacity:1"
         d="M 69.214347,-81.70606 H 112.56136"
         id="path3369"
         inkscape:connector-curvature="0" />
      <path
         style="display:inline;fill:none;stroke:#000000;stroke-width:1px;stroke-linecap:butt;stroke-linejoin:miter;stroke-opacity:1"
         d="M 69.214347,-4.21802 H 112.56136"
         id="path3371"
         inkscape:connector-curvature="0" />
      <path
         style="display:inline;fill:none;stroke:#000000;stroke-width:1px;stroke-linecap:butt;stroke-linejoin:miter;stroke-opacity:1"
         d="M 69.214347,73.2701 H 112.56136"
         id="path3373"
         inkscape:connector-curvature="0" />
      <path
         style="display:inline;fill:none;stroke:#000000;stroke-width:1px;stroke-linecap:butt;stroke-linejoin:miter;stroke-opacity:1"
         d="M 69.214347,150.75818 H 112.56136"
         id="path3375"
         inkscape:connector-curvature="0" />
      <path
         style="display:inline;fill:none;stroke:#000000;stroke-width:1px;stroke-linecap:butt;stroke-linejoin:miter;stroke-opacity:1"
         d="M 69.214347,228.24626 H 112.56136"
         id="path3377"
         inkscape:connector-curvature="0" />
      <path
         style="display:inline;fill:none;stroke:#000000;stroke-width:1px;stroke-linecap:butt;stroke-linejoin:miter;stroke-opacity:1"
         d="M 69.214347,305.73434 H 112.56136"
         id="path3379"
         inkscape:connector-curvature="0" />
      <path
         style="display:inline;fill:none;stroke:#000000;stroke-width:1px;stroke-linecap:butt;stroke-linejoin:miter;stroke-opacity:1"
         d="M 69.214347,383.22245 H 112.56136"
         id="path3381"
         inkscape:connector-curvature="0" />
      <path
         style="display:inline;fill:none;stroke:#000000;stroke-width:1px;stroke-linecap:butt;stroke-linejoin:miter;stroke-opacity:1"
         d="M 69.214347,460.7105 H 112.56136"
         id="path3383"
         inkscape:connector-curvature="0" />
      <path
         style="display:inline;fill:none;stroke:#000000;stroke-width:1px;stroke-linecap:butt;stroke-linejoin:miter;stroke-opacity:1"
         d="M 69.214347,538.1986 H 112.56136"
         id="path3385"
         inkscape:connector-curvature="0" />
      <path
         style="display:inline;fill:none;stroke:#000000;stroke-width:1px;stroke-linecap:butt;stroke-linejoin:miter;stroke-opacity:1"
         d="M 69.214347,615.6867 H 112.56136"
         id="path3387"
         inkscape:connector-curvature="0" />
      <path
         style="display:inline;fill:none;stroke:#000000;stroke-width:1px;stroke-linecap:butt;stroke-linejoin:miter;stroke-opacity:1"
         d="M 69.214347,693.1748 H 112.56136"
         id="path3389"
         inkscape:connector-curvature="0" />
      <text
         xml:space="preserve"
         style="font-style:normal;font-variant:normal;font-weight:normal;font-stretch:normal;line-height:0%;font-family:Verdana;text-align:start;writing-mode:lr-tb;text-anchor:start;display:inline;fill:#000000;fill-opacity:1;stroke:none"
         x="157.84795"
         y="319.83539"
         id="text3393"
         transform="scale(1.006272,0.9937671)"><tspan
           sodipodi:role="line"
           id="tspan3395"
           x="157.84795"
           y="319.83539"
           style="font-size:28.79293633px;line-height:1.25">2k</tspan></text>
      <text
         xml:space="preserve"
         style="font-style:normal;font-variant:normal;font-weight:normal;font-stretch:normal;line-height:0%;font-family:Verdana;text-align:start;writing-mode:lr-tb;text-anchor:start;display:inline;fill:#000000;fill-opacity:1;stroke:none"
         x="157.84795"
         y="241.75322"
         id="text3397"
         transform="scale(1.006272,0.9937671)"><tspan
           sodipodi:role="line"
           id="tspan3399"
           x="157.84795"
           y="241.75322"
           style="font-size:28.79293633px;line-height:1.25">3k</tspan></text>
      <text
         xml:space="preserve"
         style="font-style:normal;font-variant:normal;font-weight:normal;font-stretch:normal;line-height:0%;font-family:Verdana;text-align:start;writing-mode:lr-tb;text-anchor:start;display:inline;fill:#000000;fill-opacity:1;stroke:none"
         x="157.84795"
         y="163.67108"
         id="text3401"
         transform="scale(1.006272,0.9937671)"><tspan
           sodipodi:role="line"
           id="tspan3403"
           x="157.84795"
           y="163.67108"
           style="font-size:28.79293633px;line-height:1.25">4k</tspan></text>
      <text
         xml:space="preserve"
         style="font-style:normal;font-variant:normal;font-weight:normal;font-stretch:normal;line-height:0%;font-family:Verdana;text-align:start;writing-mode:lr-tb;text-anchor:start;display:inline;fill:#000000;fill-opacity:1;stroke:none"
         x="157.84795"
         y="85.589005"
         id="text3405"
         transform="scale(1.006272,0.9937671)"><tspan
           sodipodi:role="line"
           id="tspan3407"
           x="157.84795"
           y="85.589005"
           style="font-size:28.79293633px;line-height:1.25">5k</tspan></text>
      <text
         xml:space="preserve"
         style="font-style:normal;font-variant:normal;font-weight:normal;font-stretch:normal;line-height:0%;font-family:Verdana;text-align:start;writing-mode:lr-tb;text-anchor:start;display:inline;fill:#000000;fill-opacity:1;stroke:none"
         x="157.84795"
         y="7.506886"
         id="text3409"
         transform="scale(1.006272,0.9937671)"><tspan
           sodipodi:role="line"
           id="tspan3411"
           x="157.84795"
           y="7.506886"
           style="font-size:28.79293633px;line-height:1.25">6k</tspan></text>
      <text
         xml:space="preserve"
         style="font-style:normal;font-variant:normal;font-weight:normal;font-stretch:normal;line-height:0%;font-family:Verdana;text-align:start;writing-mode:lr-tb;text-anchor:start;display:inline;fill:#000000;fill-opacity:1;stroke:none"
         x="157.84795"
         y="-70.575294"
         id="text3413"
         transform="scale(1.006272,0.9937671)"><tspan
           sodipodi:role="line"
           id="tspan3415"
           x="157.84795"
           y="-70.575294"
           style="font-size:28.79293633px;line-height:1.25">7k</tspan></text>
      <text
         xml:space="preserve"
         style="font-style:normal;font-variant:normal;font-weight:normal;font-stretch:normal;line-height:0%;font-family:Verdana;text-align:start;writing-mode:lr-tb;text-anchor:start;display:inline;fill:#000000;fill-opacity:1;stroke:none"
         x="157.84795"
         y="-148.69966"
         id="text3417"
         transform="scale(1.006272,0.9937671)"><tspan
           sodipodi:role="line"
           id="tspan3419"
           x="157.84795"
           y="-148.69966"
           style="font-size:28.79293633px;line-height:1.25">8k</tspan></text>
      <text
         xml:space="preserve"
         style="font-style:normal;font-variant:normal;font-weight:normal;font-stretch:normal;line-height:0%;font-family:Verdana;text-align:start;writing-mode:lr-tb;text-anchor:start;display:inline;fill:#000000;fill-opacity:1;stroke:none"
         x="157.84795"
         y="-226.73965"
         id="text3421"
         transform="scale(1.006272,0.9937671)"><tspan
           sodipodi:role="line"
           id="tspan3423"
           x="157.84795"
           y="-226.73965"
           style="font-size:28.79293633px;line-height:1.25">9k</tspan></text>
      <text
         xml:space="preserve"
         style="font-style:normal;font-variant:normal;font-weight:normal;font-stretch:normal;line-height:0%;font-family:Verdana;text-align:start;writing-mode:lr-tb;text-anchor:start;display:inline;fill:#000000;fill-opacity:1;stroke:none"
         x="157.84795"
         y="554.0816"
         id="text3429"
         transform="scale(1.006272,0.9937671)"><tspan
           sodipodi:role="line"
           id="tspan3431"
           x="157.84795"
           y="554.0816"
           style="font-size:28.79293633px;line-height:1.25">-1k</tspan></text>
      <text
         xml:space="preserve"
         style="font-style:normal;font-variant:normal;font-weight:normal;font-stretch:normal;line-height:0%;font-family:Verdana;text-align:start;writing-mode:lr-tb;text-anchor:start;display:inline;fill:#000000;fill-opacity:1;stroke:none"
         x="157.84795"
         y="632.16357"
         id="text3433"
         transform="scale(1.006272,0.9937671)"><tspan
           sodipodi:role="line"
           id="tspan3435"
           x="157.84795"
           y="632.16357"
           style="font-size:28.79293633px;line-height:1.25">-2k</tspan></text>
      <text
         xml:space="preserve"
         style="font-style:normal;font-variant:normal;font-weight:normal;font-stretch:normal;line-height:0%;font-family:Verdana;text-align:start;writing-mode:lr-tb;text-anchor:start;display:inline;fill:#000000;fill-opacity:1;stroke:none"
         x="157.84795"
         y="710.24548"
         id="text3437"
         transform="scale(1.006272,0.9937671)"><tspan
           sodipodi:role="line"
           id="tspan3439"
           x="157.84795"
           y="710.24548"
           style="font-size:28.79293633px;line-height:1.25">-3k</tspan></text>
      <text
         xml:space="preserve"
         style="font-style:normal;font-variant:normal;font-weight:normal;font-stretch:normal;line-height:0%;font-family:Verdana;text-align:start;writing-mode:lr-tb;text-anchor:start;display:inline;fill:#000000;fill-opacity:1;stroke:none"
         x="175.17462"
         y="475.99963"
         id="text3441"
         transform="scale(1.006272,0.9937671)"><tspan
           sodipodi:role="line"
           id="tspan3443"
           x="175.17462"
           y="475.99963"
           style="font-size:28.79293633px;line-height:1.25">0</tspan></text>
      <path
         style="display:inline;fill:none;stroke:#000000;stroke-width:0.99999988px;stroke-linecap:butt;stroke-linejoin:miter;stroke-opacity:1"
         d="M 68.631216,291.21332 H 95.430177"
         id="path3445"
         inkscape:connector-curvature="0" />
      <path
         style="display:inline;fill:none;stroke:#000000;stroke-width:0.99999988px;stroke-linecap:butt;stroke-linejoin:miter;stroke-opacity:1"
         d="M 68.631216,275.78663 H 95.430177"
         id="path3447"
         inkscape:connector-curvature="0" />
      <path
         style="display:inline;fill:none;stroke:#000000;stroke-width:0.99999988px;stroke-linecap:butt;stroke-linejoin:miter;stroke-opacity:1"
         d="M 68.631216,260.3599 H 95.430177"
         id="path3449"
         inkscape:connector-curvature="0" />
      <path
         style="display:inline;fill:none;stroke:#000000;stroke-width:0.99999988px;stroke-linecap:butt;stroke-linejoin:miter;stroke-opacity:1"
         d="M 68.631216,244.93315 H 95.430177"
         id="path3455"
         inkscape:connector-curvature="0" />
      <path
         style="display:inline;fill:none;stroke:#000000;stroke-width:0.99999988px;stroke-linecap:butt;stroke-linejoin:miter;stroke-opacity:1"
         d="M 68.631216,396.60786 H 95.430177"
         id="path3467"
         inkscape:connector-curvature="0" />
      <path
         style="display:inline;fill:none;stroke:#000000;stroke-width:0.99999988px;stroke-linecap:butt;stroke-linejoin:miter;stroke-opacity:1"
         d="M 68.631216,365.16016 H 95.430177"
         id="path3469"
         inkscape:connector-curvature="0" />
      <path
         style="display:inline;fill:none;stroke:#000000;stroke-width:0.99999988px;stroke-linecap:butt;stroke-linejoin:miter;stroke-opacity:1"
         d="M 68.631216,349.73343 H 95.430177"
         id="path3471"
         inkscape:connector-curvature="0" />
      <path
         style="display:inline;fill:none;stroke:#000000;stroke-width:0.99999988px;stroke-linecap:butt;stroke-linejoin:miter;stroke-opacity:1"
         d="M 68.631216,318.87998 H 95.430177"
         id="path3473"
         inkscape:connector-curvature="0" />
      <path
         style="display:inline;fill:none;stroke:#000000;stroke-width:0.99999988px;stroke-linecap:butt;stroke-linejoin:miter;stroke-opacity:1"
         d="M 68.631216,412.03462 H 95.430177"
         id="path3475"
         inkscape:connector-curvature="0" />
      <path
         style="display:inline;fill:none;stroke:#000000;stroke-width:0.99999988px;stroke-linecap:butt;stroke-linejoin:miter;stroke-opacity:1"
         d="M 68.631216,334.30668 H 95.430177"
         id="path3477"
         inkscape:connector-curvature="0" />
      <path
         style="display:inline;fill:none;stroke:#000000;stroke-width:0.99999988px;stroke-linecap:butt;stroke-linejoin:miter;stroke-opacity:1"
         d="M 68.631216,491.32176 H 95.430177"
         id="path3495"
         inkscape:connector-curvature="0" />
      <path
         style="display:inline;fill:none;stroke:#000000;stroke-width:0.99999988px;stroke-linecap:butt;stroke-linejoin:miter;stroke-opacity:1"
         d="M 68.631216,475.89506 H 95.430177"
         id="path3497"
         inkscape:connector-curvature="0" />
      <path
         style="display:inline;fill:none;stroke:#000000;stroke-width:0.99999988px;stroke-linecap:butt;stroke-linejoin:miter;stroke-opacity:1"
         d="M 68.631216,429.61489 H 95.430177"
         id="path3501"
         inkscape:connector-curvature="0" />
      <path
         style="display:inline;fill:none;stroke:#000000;stroke-width:0.99999988px;stroke-linecap:butt;stroke-linejoin:miter;stroke-opacity:1"
         d="M 68.631216,506.7485 H 95.430177"
         id="path3503"
         inkscape:connector-curvature="0" />
      <path
         style="display:inline;fill:none;stroke:#000000;stroke-width:0.99999988px;stroke-linecap:butt;stroke-linejoin:miter;stroke-opacity:1"
         d="M 68.631216,445.04158 H 95.430177"
         id="path3505"
         inkscape:connector-curvature="0" />
      <path
         style="display:inline;fill:none;stroke:#000000;stroke-width:0.99999988px;stroke-linecap:butt;stroke-linejoin:miter;stroke-opacity:1"
         d="M 68.631216,586.0357 H 95.430177"
         id="path3509"
         inkscape:connector-curvature="0" />
      <path
         style="display:inline;fill:none;stroke:#000000;stroke-width:0.99999988px;stroke-linecap:butt;stroke-linejoin:miter;stroke-opacity:1"
         d="M 68.631216,570.609 H 95.430177"
         id="path3511"
         inkscape:connector-curvature="0" />
      <path
         style="display:inline;fill:none;stroke:#000000;stroke-width:0.99999988px;stroke-linecap:butt;stroke-linejoin:miter;stroke-opacity:1"
         d="M 68.631216,555.1822 H 95.430177"
         id="path3513"
         inkscape:connector-curvature="0" />
      <path
         style="display:inline;fill:none;stroke:#000000;stroke-width:0.99999988px;stroke-linecap:butt;stroke-linejoin:miter;stroke-opacity:1"
         d="M 68.631216,524.3288 H 95.430177"
         id="path3515"
         inkscape:connector-curvature="0" />
      <path
         style="display:inline;fill:none;stroke:#000000;stroke-width:0.99999988px;stroke-linecap:butt;stroke-linejoin:miter;stroke-opacity:1"
         d="M 68.631216,601.4624 H 95.430177"
         id="path3517"
         inkscape:connector-curvature="0" />
      <path
         style="display:inline;fill:none;stroke:#000000;stroke-width:0.99999988px;stroke-linecap:butt;stroke-linejoin:miter;stroke-opacity:1"
         d="M 68.631216,678.0794 H 95.430177"
         id="path3523"
         inkscape:connector-curvature="0" />
      <path
         style="display:inline;fill:none;stroke:#000000;stroke-width:0.99999988px;stroke-linecap:butt;stroke-linejoin:miter;stroke-opacity:1"
         d="M 68.631216,662.6527 H 95.430177"
         id="path3525"
         inkscape:connector-curvature="0" />
      <path
         style="display:inline;fill:none;stroke:#000000;stroke-width:0.99999988px;stroke-linecap:butt;stroke-linejoin:miter;stroke-opacity:1"
         d="M 68.631216,647.226 H 95.430177"
         id="path3527"
         inkscape:connector-curvature="0" />
      <path
         style="display:inline;fill:none;stroke:#000000;stroke-width:0.99999988px;stroke-linecap:butt;stroke-linejoin:miter;stroke-opacity:1"
         d="M 68.631216,631.7992 H 95.430177"
         id="path3533"
         inkscape:connector-curvature="0" />
      <path
         style="display:inline;fill:none;stroke:#000000;stroke-width:0.99999988px;stroke-linecap:butt;stroke-linejoin:miter;stroke-opacity:1"
         d="M 68.631216,196.49946 H 95.430177"
         id="path3537"
         inkscape:connector-curvature="0" />
      <path
         style="display:inline;fill:none;stroke:#000000;stroke-width:0.99999988px;stroke-linecap:butt;stroke-linejoin:miter;stroke-opacity:1"
         d="M 68.631216,181.07276 H 95.430177"
         id="path3539"
         inkscape:connector-curvature="0" />
      <path
         style="display:inline;fill:none;stroke:#000000;stroke-width:0.99999988px;stroke-linecap:butt;stroke-linejoin:miter;stroke-opacity:1"
         d="M 68.631216,165.64604 H 95.430177"
         id="path3541"
         inkscape:connector-curvature="0" />
      <path
         style="display:inline;fill:none;stroke:#000000;stroke-width:0.99999988px;stroke-linecap:butt;stroke-linejoin:miter;stroke-opacity:1"
         d="M 68.631216,132.12242 H 95.430177"
         id="path3543"
         inkscape:connector-curvature="0" />
      <path
         style="display:inline;fill:none;stroke:#000000;stroke-width:0.99999988px;stroke-linecap:butt;stroke-linejoin:miter;stroke-opacity:1"
         d="M 68.631216,211.92622 H 95.430177"
         id="path3545"
         inkscape:connector-curvature="0" />
      <path
         style="display:inline;fill:none;stroke:#000000;stroke-width:0.99999988px;stroke-linecap:butt;stroke-linejoin:miter;stroke-opacity:1"
         d="M 68.631216,104.45564 H 95.430177"
         id="path3551"
         inkscape:connector-curvature="0" />
      <path
         style="display:inline;fill:none;stroke:#000000;stroke-width:0.99999988px;stroke-linecap:butt;stroke-linejoin:miter;stroke-opacity:1"
         d="M 68.631216,89.02895 H 95.430177"
         id="path3553"
         inkscape:connector-curvature="0" />
      <path
         style="display:inline;fill:none;stroke:#000000;stroke-width:0.99999988px;stroke-linecap:butt;stroke-linejoin:miter;stroke-opacity:1"
         d="M 68.631216,42.74877 H 95.430177"
         id="path3557"
         inkscape:connector-curvature="0" />
      <path
         style="display:inline;fill:none;stroke:#000000;stroke-width:0.99999988px;stroke-linecap:butt;stroke-linejoin:miter;stroke-opacity:1"
         d="M 68.631216,119.8824 H 95.430177"
         id="path3559"
         inkscape:connector-curvature="0" />
      <path
         style="display:inline;fill:none;stroke:#000000;stroke-width:0.99999988px;stroke-linecap:butt;stroke-linejoin:miter;stroke-opacity:1"
         d="M 68.631216,58.17547 H 95.430177"
         id="path3561"
         inkscape:connector-curvature="0" />
      <path
         style="display:inline;fill:none;stroke:#000000;stroke-width:0.99999988px;stroke-linecap:butt;stroke-linejoin:miter;stroke-opacity:1"
         d="M 68.631216,9.74184 H 95.430177"
         id="path3565"
         inkscape:connector-curvature="0" />
      <path
         style="display:inline;fill:none;stroke:#000000;stroke-width:0.99999988px;stroke-linecap:butt;stroke-linejoin:miter;stroke-opacity:1"
         d="M 68.631216,-21.11161 H 95.430177"
         id="path3569"
         inkscape:connector-curvature="0" />
      <path
         style="display:inline;fill:none;stroke:#000000;stroke-width:0.99999988px;stroke-linecap:butt;stroke-linejoin:miter;stroke-opacity:1"
         d="M 68.631216,-51.96503 H 95.430177"
         id="path3571"
         inkscape:connector-curvature="0" />
      <path
         style="display:inline;fill:none;stroke:#000000;stroke-width:0.99999988px;stroke-linecap:butt;stroke-linejoin:miter;stroke-opacity:1"
         d="M 68.631216,25.16859 H 95.430177"
         id="path3573"
         inkscape:connector-curvature="0" />
      <path
         style="display:inline;fill:none;stroke:#000000;stroke-width:0.99999988px;stroke-linecap:butt;stroke-linejoin:miter;stroke-opacity:1"
         d="M 68.631216,-36.53834 H 95.430177"
         id="path3575"
         inkscape:connector-curvature="0" />
      <path
         style="display:inline;fill:none;stroke:#000000;stroke-width:0.99999988px;stroke-linecap:butt;stroke-linejoin:miter;stroke-opacity:1"
         d="M 68.631216,-100.39878 H 95.430177"
         id="path3581"
         inkscape:connector-curvature="0" />
      <path
         style="display:inline;fill:none;stroke:#000000;stroke-width:0.99999988px;stroke-linecap:butt;stroke-linejoin:miter;stroke-opacity:1"
         d="M 68.631216,-115.82551 H 95.430177"
         id="path3583"
         inkscape:connector-curvature="0" />
      <path
         style="display:inline;fill:none;stroke:#000000;stroke-width:0.99999988px;stroke-linecap:butt;stroke-linejoin:miter;stroke-opacity:1"
         d="M 68.631216,-146.67896 H 95.430177"
         id="path3585"
         inkscape:connector-curvature="0" />
      <path
         style="display:inline;fill:none;stroke:#000000;stroke-width:0.99999988px;stroke-linecap:butt;stroke-linejoin:miter;stroke-opacity:1"
         d="M 68.631216,-66.87516 H 95.430177"
         id="path3587"
         inkscape:connector-curvature="0" />
      <path
         style="display:inline;fill:none;stroke:#000000;stroke-width:0.99999988px;stroke-linecap:butt;stroke-linejoin:miter;stroke-opacity:1"
         d="M 68.631216,-131.25226 H 95.430177"
         id="path3589"
         inkscape:connector-curvature="0" />
      <path
         style="display:inline;fill:none;stroke:#000000;stroke-width:0.99999988px;stroke-linecap:butt;stroke-linejoin:miter;stroke-opacity:1"
         d="M 68.631216,-174.34568 H 95.430177"
         id="path3593"
         inkscape:connector-curvature="0" />
      <path
         style="display:inline;fill:none;stroke:#000000;stroke-width:0.99999988px;stroke-linecap:butt;stroke-linejoin:miter;stroke-opacity:1"
         d="M 68.631216,-189.77237 H 95.430177"
         id="path3595"
         inkscape:connector-curvature="0" />
      <path
         style="display:inline;fill:none;stroke:#000000;stroke-width:0.99999988px;stroke-linecap:butt;stroke-linejoin:miter;stroke-opacity:1"
         d="M 68.631216,-205.1991 H 95.430177"
         id="path3597"
         inkscape:connector-curvature="0" />
      <path
         style="display:inline;fill:none;stroke:#000000;stroke-width:0.99999988px;stroke-linecap:butt;stroke-linejoin:miter;stroke-opacity:1"
         d="M 68.631216,-220.62585 H 95.430177"
         id="path3603"
         inkscape:connector-curvature="0" />
      <text
         xml:space="preserve"
         style="font-style:normal;font-variant:normal;font-weight:normal;font-stretch:normal;font-size:51.04636383px;line-height:0%;font-family:Verdana;-inkscape-font-specification:'Verdana, Normal';font-variant-ligatures:normal;font-variant-caps:normal;font-variant-numeric:normal;font-feature-settings:normal;text-align:start;writing-mode:lr-tb;text-anchor:start;display:inline;fill:#000000;fill-opacity:1;stroke:none"
         x="121.22782"
         y="-425.41321"
         id="text3774"
         transform="scale(1.006272,0.9937671)"><tspan
           sodipodi:role="line"
           id="tspan4268"
           x="121.22782"
           y="-425.41321">$</tspan></text>
      <path
         sodipodi:nodetypes="cssssssscc"
         inkscape:connector-curvature="0"
         id="path3866"
         d="m 124.26047,259.61622 v 560.0569 c 0,6.1573 -7.44438,23.97228 -7.44438,30.64313 v 150.35905 c 0,12.5676 10.15497,22.7227 22.72266,22.7227 12.56768,0 22.67938,-10.1551 22.67938,-22.7227 V 850.31625 c 0,-6.67653 -7.44438,-24.48043 -7.44438,-30.64313 v -560.0569 z"
         style="fill:#0000ff;fill-opacity:1;fill-rule:nonzero;stroke:none" />
      <path
         style="fill:none;stroke:#000000;stroke-width:1.38499999;stroke-linecap:round;stroke-linejoin:round;stroke-miterlimit:4;stroke-dashoffset:0;stroke-opacity:1"
         d="m 139.53875,-406.225 c -8.45463,0 -15.27828,6.82365 -15.27828,15.27828 V 819.67312 c 0,6.1573 -7.44438,23.97228 -7.44438,30.64313 v 150.35905 c 0,12.5676 10.15497,22.7227 22.72266,22.7227 12.56768,0 22.67938,-10.1551 22.67938,-22.7227 V 850.31625 c 0,-6.67653 -7.44438,-24.48043 -7.44438,-30.64313 V -390.94672 c 0,-8.45463 -6.78036,-15.27828 -15.235,-15.27828 z"
         id="rect3859"
         inkscape:connector-curvature="0"
         sodipodi:nodetypes="sssssssssss" />
    </g>
    <path
       style="fill:#00ff00;fill-opacity:1;fill-rule:evenodd;stroke:none;stroke-width:5.71428585;stroke-linecap:round;stroke-miterlimit:4;stroke-dasharray:none;stroke-opacity:1"
       d="m 380.08441,1016.1959 c -4.03174,-4.0317 -4.40966,-11.2832 -3.01529,-57.8571 0.8768,-29.28623 2.25426,-131.99769 3.06102,-228.24769 l 1.46683,-175 h 6.97446 6.97446 l 1.46683,175 c 0.80676,96.25 2.18421,198.96146 3.06101,228.24769 1.39438,46.5739 1.01646,53.8254 -3.01528,57.8571 -2.53521,2.5352 -6.35437,4.6095 -8.48702,4.6095 -2.13265,0 -5.95181,-2.0743 -8.48702,-4.6095 z"
       id="path467"
       inkscape:connector-curvature="0"
       transform="scale(0.26458333)" />
    <path
       style="fill:#000000;stroke-width:0.74247569"
       d="m 89.2402,183.21758 c -0.346651,-0.23096 -0.630306,-9.37498 -0.630306,-20.31999 v -19.90001 h -7.304933 c -5.59754,0 -7.425164,-0.20893 -7.819465,-0.89357 -0.616622,-1.07077 27.022234,-27.28972 28.767654,-27.28972 1.7454,0 29.38429,26.21895 28.76767,27.28972 -0.39419,0.68453 -2.22048,0.89357 -7.80725,0.89357 h -7.29265 l -0.23961,20.15253 -0.2396,20.15258 -12.78561,0.16744 c -7.032048,0.092 -13.069169,-0.0207 -13.415841,-0.25255 z m 24.14266,-21.5827 0.23961,-20.15256 7.04821,-0.30302 7.0482,-0.30308 -12.3463,-11.66725 c -6.79048,-6.41698 -12.69427,-11.66724 -13.11947,-11.66724 -0.42521,0 -6.328985,5.25026 -13.119437,11.66724 l -12.346352,11.66725 7.048212,0.30308 7.048213,0.30302 0.239609,20.15256 0.23961,20.15258 h 10.890065 10.89006 z"
       id="path4339"
       inkscape:connector-curvature="0" />
    <text
       xml:space="preserve"
       style="font-style:normal;font-variant:normal;font-weight:normal;font-stretch:normal;font-size:27.49267756px;line-height:125%;font-family:'Arial Black';-inkscape-font-specification:'Arial Black, Normal';font-variant-ligatures:normal;font-variant-caps:normal;font-variant-numeric:normal;font-feature-settings:normal;text-align:start;letter-spacing:0px;word-spacing:0px;writing-mode:lr;text-anchor:start;fill:#000000;fill-opacity:1;stroke:none;stroke-width:1.83284724px;stroke-linecap:butt;stroke-linejoin:miter;stroke-opacity:1;"
       x="15.27219"
       y="111.53104"
       id="text4343"
       transform="scale(0.48105224,2.0787763)"><tspan
         sodipodi:role="line"
         id="tspan4341"
         x="15.27219"
         y="111.53104"
         style="font-style:normal;font-variant:normal;font-weight:normal;font-stretch:normal;font-size:27.49267756px;font-family:'Arial Black';-inkscape-font-specification:'Arial Black, Normal';font-variant-ligatures:normal;font-variant-caps:normal;font-variant-numeric:normal;font-feature-settings:normal;text-align:start;writing-mode:lr;text-anchor:start;stroke-width:1.83284724px;">From Debt</tspan></text>
    <text
       xml:space="preserve"
       style="font-style:normal;font-variant:normal;font-weight:normal;font-stretch:normal;font-size:28.65157127px;line-height:125%;font-family:'AR PL SungtiL GB';-inkscape-font-specification:'AR PL SungtiL GB, Normal';font-variant-ligatures:normal;font-variant-caps:normal;font-variant-numeric:normal;font-feature-settings:normal;text-align:start;letter-spacing:0px;word-spacing:0px;writing-mode:lr-tb;text-anchor:start;fill:#000000;fill-opacity:1;stroke:none;stroke-width:1.91010666px;stroke-linecap:butt;stroke-linejoin:miter;stroke-opacity:1"
       x="228.25897"
       y="47.817497"
       id="text4347"
       transform="scale(0.55198656,1.8116383)"><tspan
         sodipodi:role="line"
         id="tspan4345"
         x="228.25897"
         y="47.817497"
         style="font-style:normal;font-variant:normal;font-weight:normal;font-stretch:normal;font-size:28.65157127px;font-family:'AR PL SungtiL GB';-inkscape-font-specification:'AR PL SungtiL GB, Normal';font-variant-ligatures:normal;font-variant-caps:normal;font-variant-numeric:normal;font-feature-settings:normal;text-align:start;writing-mode:lr-tb;text-anchor:start;stroke-width:1.91010666px">To Riches!</tspan></text>
    <path
       style="fill:#0000ff;fill-opacity:1;fill-rule:evenodd;stroke:none;stroke-width:0.52916664;stroke-linecap:round;stroke-miterlimit:4;stroke-dasharray:none;stroke-opacity:1"
       id="path4353"
       d="m 2.8203453,180.70224 c 0.949356,-0.008 1.907299,0.0671 2.8522507,-0.0409 1.7053157,-0.90447 -1.8542387,1.08383 -2.8060219,1.58026 -0.1422638,0.0742 0.2510105,-0.20039 0.3687792,-0.30937 0.4315073,-0.39928 0.7537812,-0.84914 1.0715654,-1.33967 0.4666093,-0.80795 0.9395637,-1.61504 1.4820116,-2.37502 0.3208756,-0.38761 0.6956687,-0.72623 0.9127514,-1.18682 0.111878,-0.51729 0.2011855,-1.01267 0.3919098,-1.51337 0.3511868,-0.86887 0.6577751,-1.75923 1.088399,-2.59281 0.7065669,-0.98466 1.6188825,-1.80118 2.4589695,-2.6699 0.406358,-0.29556 0.909522,-1.22229 1.316747,-1.4689 1.254651,-0.75981 2.533633,-1.4787 3.80045,-2.21804 0.78351,-0.18505 1.60283,-0.14929 2.403024,-0.15073 1.347632,-0.10028 2.214825,0.46668 3.183793,1.32729 0.62421,0.64453 1.303028,1.2405 1.857428,1.95002 0.300071,0.38403 0.536898,0.77128 0.801346,1.18032 0.911364,1.511 1.664804,3.10928 2.416748,4.7035 0.451762,0.70074 0.616274,1.94287 1.3059,2.44349 0.516644,0.22128 1.093949,0.19081 1.644936,0.18749 0.682482,-0.008 1.364927,-0.016 2.04746,-0.018 0.890746,0.001 1.781489,-0.002 2.672236,-0.002 0.748151,-0.012 1.531495,-0.0726 2.222656,-0.37686 0.0231,-0.008 0.595402,-0.21365 0.635381,-0.23075 0.09296,-0.0398 0.359492,-0.185 0.271761,-0.13473 -5.799653,3.32263 -3.833273,2.43114 -2.770044,1.43028 0.610414,-0.69685 0.84242,-1.61404 1.121505,-2.47536 0.315161,-0.964 0.497033,-1.96327 0.606991,-2.96947 0.09193,-0.3794 -0.0266,-0.80194 0.07364,-1.17821 0.404897,-1.51985 2.608117,-1.76264 3.965017,-2.55808 1.036351,-0.17451 2.091054,-0.181 3.139085,-0.19641 0.674116,-0.009 1.34825,-0.006 2.022385,-0.003 0.731994,0.0798 1.391137,-0.17972 2.066568,-0.41837 0.674714,-0.30481 1.404112,-0.35673 2.132608,-0.39255 1.234699,-0.12535 1.564483,0.25964 2.237401,1.25317 0.739232,1.21303 1.333153,2.5026 1.883161,3.80964 0.410755,0.97632 0.858499,1.93899 1.23852,2.92804 0.276336,0.69743 0.531379,1.40268 0.782844,2.10932 0.168584,0.5545 0.454747,1.06725 0.771035,1.5504 0.250452,0.37633 0.725946,0.34517 1.13142,0.36528 0.606292,0.0287 1.194297,0.0542 1.772298,-0.14614 0.78854,-0.23641 1.501473,-0.6638 2.22691,-1.04377 1.18658,-0.61839 2.766515,-1.44931 -2.565032,1.48327 -0.158591,0.0872 0.301858,-0.19997 0.448932,-0.30546 0.394623,-0.28307 0.758857,-0.59346 1.113734,-0.92386 0.545984,-0.56641 0.912665,-1.26767 1.289193,-1.95048 0.529553,-0.99658 0.962097,-2.03912 1.369666,-3.09009 0.29514,-0.80972 0.601448,-1.6149 0.891135,-2.42662 0.242753,-0.67149 0.589799,-1.2974 0.92945,-1.92305 0.329239,-0.64761 0.659714,-1.28135 1.130906,-1.83761 1.414965,-1.52757 3.295951,-2.70941 5.344051,-3.12549 0.630235,-0.11172 1.269423,-0.12218 1.907228,-0.12173 0.976706,0.24779 1.557885,1.02686 2.079421,1.83132 0.550831,1.02613 1.133782,2.0394 1.650775,3.0838 0.278268,0.57903 0.439076,1.1947 0.512691,1.82978 5.29e-4,0.44736 0.158922,0.86117 0.311357,1.27427 0.171772,0.39736 0.125335,0.74733 -0.07822,1.11308 -0.217074,0.51154 -0.2028,1.09641 -0.221109,1.64401 -0.01312,0.4812 -0.0042,0.96257 -0.0041,1.44386 -0.06654,0.6872 0.41093,1.14016 0.821285,1.63187 0.561885,0.57725 1.057297,1.21903 1.617515,1.79638 0.415713,0.32566 0.941985,0.40848 1.405993,0.62444 0.290653,0.18142 0.619239,0.22881 0.954114,0.24676 0.500107,0.0173 1.000614,0.0137 1.500931,0.0151 0.604761,-0.002 1.209521,-0.002 1.81429,-0.003 0.281345,-0.0262 0.572646,0.0317 0.853279,-0.003 0.200308,-0.0245 0.262032,-0.0764 0.438676,-0.16737 -1.111456,0.62402 -2.22291,1.24804 -3.334366,1.87207 0.410919,-0.24567 0.655195,-0.61229 0.78817,-1.06241 0.05795,-0.50285 0.292594,-0.93396 0.534328,-1.36793 0.275204,-0.52492 0.634281,-0.99539 1.052746,-1.41305 1.265311,-1.05717 2.672053,-2.12607 4.311901,-2.3477 0,0 -3.320322,2.5237 -3.320322,2.5237 v 0 c -0.11488,0.0363 -0.438584,0.19757 -0.334706,0.13651 1.589693,-0.93436 4.620482,-2.68891 3.199455,-1.86615 -0.472845,0.31517 -0.83693,0.77956 -1.109916,1.27311 -0.233114,0.39814 -0.545317,0.78264 -0.574281,1.25894 -0.103995,0.50941 -0.271137,1.00323 -0.68017,1.35238 -3.306326,1.89956 -2.785261,2.29439 -5.182163,2.25033 -0.604832,5.3e-4 -1.209654,0.003 -1.814481,0.003 -0.51472,0.002 -1.031682,0.0112 -1.544362,-0.0412 -0.358953,-0.0592 -0.695849,-0.17424 -1.016286,-0.34875 -0.52954,-0.19564 -1.064011,-0.39641 -1.491176,-0.78079 -0.536027,-0.60785 -1.044715,-1.2397 -1.605444,-1.82668 -0.458584,-0.54415 -1.032888,-1.09878 -0.996952,-1.86428 -0.0019,-0.48801 0.006,-0.97593 0.01484,-1.46385 0.01479,-0.59598 0.02871,-1.19585 0.122952,-1.78546 0.133376,-0.33929 0.404492,-0.43321 0.237061,-0.82749 -0.15635,-0.44428 -0.36326,-0.88883 -0.365093,-1.36767 -0.03395,-0.59427 -0.157917,-1.1734 -0.403082,-1.71937 -0.483794,-1.04038 -1.061387,-2.03616 -1.603002,-3.0469 -0.459656,-0.68268 -1.005642,-1.41048 -1.898182,-1.45879 -0.616842,0.0122 -1.236901,0.0423 -1.838854,0.1895 -0.121933,0.035 -0.246735,0.0613 -0.365797,0.1051 -0.123161,0.0453 -0.471218,0.22964 -0.359019,0.16157 5.774793,-3.5034 3.576863,-2.35113 2.488629,-1.25438 -0.551582,0.55798 -0.834321,1.03783 -1.176184,1.74091 -0.316564,0.6245 -0.684967,1.2195 -0.952656,1.86787 -0.287332,0.82648 -0.620117,1.633 -0.921163,2.45445 -0.408638,1.05919 -0.828754,2.11313 -1.327933,3.13391 -0.392584,0.69804 -0.72598,1.43261 -1.239721,2.05589 -1.663502,1.74749 -3.934754,2.75805 -6.020896,3.90051 -0.743161,0.38756 -1.484881,0.79814 -2.309119,0.98728 -0.614653,0.10854 -1.237128,0.0831 -1.858055,0.0364 -0.535987,-0.0626 -1.04948,-0.18277 -1.34603,-0.6808 -0.321636,-0.5157 -0.627185,-1.05418 -0.803479,-1.63846 -0.255191,-0.70438 -0.489834,-1.41646 -0.766855,-2.11297 -0.356508,-0.99383 -0.80744,-1.95209 -1.198396,-2.93247 -0.527537,-1.28492 -1.096179,-2.5561 -1.851721,-3.72672 -0.665146,-0.92846 -0.926872,-0.98131 -2.028304,-0.88113 -0.711999,0.0659 -1.401397,0.19787 -2.065279,0.47447 -0.708636,0.23031 -1.418788,0.38386 -2.169353,0.32265 -0.661908,-0.006 -1.323824,-0.0178 -1.985769,-0.0128 -1.019199,0.016 -2.084872,-0.009 -3.049199,0.36044 1.078754,-0.64975 2.166049,-1.28553 3.236262,-1.94925 0.06977,-0.0433 -0.176067,0.0245 -0.231005,0.0855 -0.167198,0.18569 -0.0019,0.92519 -0.0977,1.17158 -0.112305,1.03505 -0.314801,2.06166 -0.606229,3.06133 -0.282427,0.89249 -0.487963,1.82921 -1.009192,2.62182 -1.285566,1.59115 -3.321175,2.41719 -5.227394,3.08304 -0.746459,0.19923 -1.520108,0.27397 -2.292358,0.25556 -0.893152,0.001 -1.786332,-7.9e-4 -2.679433,0.0104 -0.688261,0.008 -1.376513,0.0213 -2.064836,0.0203 -0.630786,-0.0197 -1.275204,-0.0441 -1.806082,-0.42936 -0.721657,-0.70165 -0.853053,-1.77423 -1.323581,-2.63737 -0.709707,-1.59148 -1.470858,-3.16587 -2.39807,-4.64374 -0.744797,-1.12085 -1.596819,-2.13593 -2.612928,-3.02554 -1.003049,-0.84361 -1.705623,-1.15972 -3.036828,-1.06805 -0.773194,0.0144 -1.599585,-0.0259 -2.308682,0.32818 1.094608,-0.64757 2.189217,-1.29514 3.283825,-1.94271 -0.07769,0.0557 -0.160759,0.10456 -0.233075,0.16707 -0.431168,0.37273 -0.738094,0.88428 -1.143121,1.28293 -0.823392,0.8566 -1.683494,1.67634 -2.480936,2.55763 -0.458147,0.80864 -0.785184,1.68144 -1.118611,2.5472 -0.09113,0.23826 -0.224106,0.46251 -0.284972,0.71024 -0.05949,0.24213 0.03871,0.53167 -0.07199,0.77044 -0.131005,0.53867 -0.457527,0.96523 -0.8823752,1.31841 -0.5866693,0.73111 -1.0684046,1.54153 -1.5338173,2.35366 -0.2035664,0.35064 -0.4020637,0.72128 -0.6544254,1.04127 -1.2332314,1.56373 -3.1190814,2.71542 -5.0530359,3.14008 -0.9617718,0.0447 -1.92522762,-0.008 -2.88760405,0.026 0,0 3.35786055,-2.43963 3.35786055,-2.43963 z"
       inkscape:connector-curvature="0" />
    <path
       style="fill:#00ff00;fill-opacity:1;fill-rule:evenodd;stroke:none;stroke-width:0.52916664;stroke-linecap:round;stroke-miterlimit:4;stroke-dasharray:none;stroke-opacity:1"
       id="path4355"
       d="m 118.90351,177.4525 c 0.86026,-0.40826 1.67395,-0.90349 2.50661,-1.36355 1.06245,-0.58624 3.80993,-2.10523 -2.79294,1.61496 -0.11706,0.0659 0.22805,-0.143 0.33434,-0.22519 0.34545,-0.26714 0.62348,-0.60373 0.90792,-0.93144 0.53927,-0.56262 0.85852,-1.25529 1.18201,-1.95266 0.4565,-0.94002 0.79015,-1.93271 1.13283,-2.91819 0.17239,-0.76081 0.5241,-1.43736 0.91392,-2.10522 0.28973,-0.57641 0.71963,-1.06016 1.05851,-1.60464 0.44908,-0.74371 0.90763,-1.48376 1.41077,-2.19249 0.6171,-0.76236 1.27905,-1.4872 1.91679,-2.2328 0.65095,-0.69259 1.32166,-1.36336 1.93603,-2.08925 0.22695,-0.40046 0.64531,-0.61985 0.94555,-0.93925 0.21382,-0.27728 0.21516,-0.64092 0.22979,-0.97604 -0.0431,-0.52473 0.1121,-0.95866 0.42157,-1.37511 0.50018,-0.44917 1.07188,-0.8194 1.6391,-1.17932 2.32261,-1.44063 7.70354,-4.39278 0.6802,-0.41396 -0.0738,0.0418 0.14066,-0.0951 0.20747,-0.14738 0.19333,-0.15128 0.18101,-0.15511 0.33767,-0.33853 0.28888,-0.46783 0.61713,-0.90889 0.94213,-1.3518 0.40362,-0.57804 0.76082,-1.18648 1.14619,-1.77647 0.30502,-0.49219 0.62656,-0.97562 1.06266,-1.3611 2.26039,-1.49008 8.08768,-4.54196 1.02443,-0.61715 -0.10192,0.0566 0.19283,-0.13138 0.2852,-0.20254 0.0964,-0.0743 0.18712,-0.15557 0.28068,-0.23336 1.26806,-1.17949 2.83959,-1.8064 4.38493,-2.68406 0.31625,-0.17961 0.66231,-0.30676 0.97977,-0.49108 -6.16323,3.48781 -3.14012,2.00211 -1.95384,0.90007 0.38077,-0.42061 0.63281,-0.93235 0.99863,-1.36446 0.44927,-0.43568 0.95842,-0.8085 1.4676,-1.17129 0.50328,-0.43803 0.9727,-0.91345 1.46471,-1.36441 1.77736,-1.76654 0.74028,-0.82097 4.69542,-3.11067 0.58869,-0.21633 1.1894,-0.39542 1.77068,-0.63272 0.54115,-0.2797 1.07817,-0.55368 1.67045,-0.7098 -0.21168,0.29929 1.28089,-0.56229 0.93595,-0.36441 -3.49172,2.00304 -4.4247,2.61066 -3.15011,1.78746 0.37769,-0.34012 0.72211,-0.71336 1.09917,-1.05432 0.35487,-0.3058 0.69779,-0.62465 1.03617,-0.94844 0.34722,-0.33874 0.69464,-0.67758 1.03132,-1.02683 0.31477,-0.44729 0.67642,-0.84475 1.106,-1.18336 0.64097,-0.40192 1.24811,-0.84921 1.85304,-1.3027 1.4385,-1.6674 3.478,-1.8861 5.21637,-2.87268 0.0743,-0.0438 0.29758,-0.17438 0.22281,-0.13143 -11.10546,6.37912 8.73078,-5.05735 -2.41458,1.36438 1.61174,-0.95493 3.08109,-2.45614 4.96085,-2.71316 -0.24912,0.28458 1.05643,-0.55636 0.7101,-0.35808 -6.17395,3.53486 -3.90273,2.45591 -2.84126,1.55585 0.45621,-0.49428 0.94241,-0.92925 1.5203,-1.27486 1.6791,0.18019 2.60293,-1.78127 4.07199,-2.30548 0.3248,-0.1159 0.66346,-0.17246 0.99045,-0.2897 0.13226,-0.0564 0.28186,-0.0583 0.41553,-0.10992 0.19778,-0.0763 0.36693,-0.2295 0.55514,-0.32787 -1.11165,0.63925 -2.22331,1.27851 -3.33497,1.91776 3.81366,-2.1911 2.4897,-1.54586 4.08217,-2.32026 0.0211,-0.0103 0.64212,-0.3118 0.66787,-0.32543 0.10554,-0.0558 0.41449,-0.23725 0.31093,-0.17782 -1.07925,0.61933 -2.15868,1.23836 -3.23802,1.85755 0.50304,-0.30171 1.00021,-0.61901 1.44166,-1.00673 0.59078,-0.47807 1.15142,-0.97104 1.64228,-1.55228 1.23901,-1.48389 3.02443,-2.80568 4.92927,-3.15178 0.24726,-0.0795 0.59103,0.0609 0.81024,-0.10346 0.0446,-0.0334 0.15307,-0.15781 0.10446,-0.13055 -1.15566,0.64813 -2.29056,1.3326 -3.43585,1.9989 0.0343,-0.0384 0.0749,-0.072 0.10276,-0.11521 0.18307,-0.28388 -0.0198,-0.069 0.18478,-0.35685 0.95881,-1.34909 2.72826,-1.97168 4.29529,-2.45674 0.65688,-0.15188 1.32948,-0.21269 2.00106,-0.25177 0.48477,-0.16322 0.94611,-0.37668 1.45585,-0.47739 0.44139,-0.0344 0.84066,-0.0864 1.22394,-0.31548 2.4139,-1.23936 -4.47719,2.72347 -2.68494,1.56171 1.45446,-0.97648 2.91588,-2.05745 4.61656,-2.52311 0.65163,-0.0355 1.21452,-0.2864 1.79537,-0.55538 -1.12818,0.64214 -2.25452,1.28749 -3.38452,1.92641 -0.059,0.0334 0.11422,-0.0731 0.17133,-0.10964 0.23491,-0.15036 0.46941,-0.30855 0.71174,-0.44657 1.27477,-0.72606 2.55366,-1.44485 3.83049,-2.16728 0.27327,-0.0844 0.29061,-0.0713 0.52975,-0.21304 0.0776,-0.046 0.30252,-0.19626 0.22406,-0.15175 -5.59616,3.17476 -4.03947,2.49269 -2.89423,1.5892 0.35706,-0.38035 0.73999,-0.70766 1.18754,-0.97717 1.37557,-0.77182 2.80029,-1.81759 4.34422,-2.39268 0.32993,-0.1229 0.67762,-0.16839 1.01151,-0.28235 0.59626,-0.26572 1.22174,-0.44462 1.84732,-0.62378 0.50111,-0.32073 1.09319,-0.38117 1.64266,-0.56463 0.1454,-0.0886 0.32225,-0.0855 0.47513,-0.15059 0.18779,-0.0799 0.38723,-0.21295 0.55781,-0.32499 -1.09106,0.62752 -2.18213,1.25504 -3.27319,1.88256 1.44878,-0.95376 2.97526,-1.75956 4.48286,-2.63055 0.11119,-0.0642 0.44531,-0.25595 0.33386,-0.19218 -3.32483,1.9023 -4.26696,2.56074 -2.97012,1.66939 1.76392,-1.31285 3.24912,-2.37821 5.30498,-2.48337 0.60439,-0.0213 1.20931,-0.0148 1.81394,-0.0118 0.5111,0.003 1.02221,0.002 1.53333,0.003 0.43578,0.002 0.87149,-0.005 1.30724,0.002 0.52136,-5.2e-4 1.04269,-5.2e-4 1.56405,0.001 0.57547,1e-5 1.15096,0.002 1.72642,-0.002 0.40091,-0.002 0.80182,-0.004 1.20273,-0.004 0.40954,-5.3e-4 0.81904,0.002 1.22858,0.002 0.42086,-0.002 0.84173,-2.4e-4 1.26258,-10e-4 0,0 -3.37075,2.449 -3.37075,2.449 v 0 c -0.41975,-0.001 -0.83951,2.6e-4 -1.25927,-0.001 -0.41167,5.2e-4 -0.82332,0.003 -1.235,0.002 -0.39765,1.6e-4 -0.79528,-0.002 -1.19292,-0.004 -0.57414,-0.004 -1.1483,-0.001 -1.72244,-0.001 -0.52246,0.002 -1.04488,0.002 -1.56735,0.001 -0.43686,0.006 -0.87368,8e-5 -1.31058,-1e-4 -0.50899,-7.9e-4 -1.01792,-0.007 -1.52691,-0.009 -0.59677,-0.002 -1.19491,-0.009 -1.79009,0.0417 -0.29102,0.0368 -0.58345,0.071 -0.86366,0.16352 -0.0948,0.0313 -0.3636,0.16351 -0.27782,0.11233 2.62551,-1.56636 4.49059,-2.54047 3.03266,-1.7752 -1.83082,1.22361 -8.41914,4.91246 -1.23904,0.77499 0.20742,-0.11952 -0.77935,0.47351 -0.60269,0.39056 -1.66729,0.97281 -3.09584,2.12177 -4.91307,2.63065 -0.56424,0.14469 -1.09786,0.35597 -1.64128,0.56238 -0.62055,0.18423 -1.22687,0.40601 -1.83628,0.6238 -1.62774,0.45354 -4.45125,2.08027 1.79655,-1.3547 -0.43741,0.26252 -0.92212,0.46916 -1.21071,0.91351 -1.42177,1.29765 -3.19249,2.17584 -4.95825,2.92226 1.09677,-0.63622 2.19531,-1.26939 3.29031,-1.90865 0.0852,-0.0497 -0.17634,0.0889 -0.26073,0.13995 -0.20827,0.12607 -0.40577,0.27318 -0.61667,0.39546 -1.24995,0.72476 -2.50404,1.44234 -3.75606,2.16351 -0.59119,0.24374 -1.2,0.37461 -1.8206,0.51992 -0.15903,0.0579 -0.61982,0.26778 -0.47395,0.182 6.10478,-3.58994 4.16786,-2.5862 3.03685,-1.71422 -1.46925,0.88345 -2.91351,1.82478 -4.47444,2.53501 -0.4149,0.12939 -0.84107,0.15463 -1.26329,0.25478 -0.4981,0.15024 -0.97302,0.397 -1.5009,0.41788 -0.64851,0.0449 -1.30292,0.11709 -1.91733,0.34138 -1.49512,0.65932 0.0435,-0.006 3.00864,-1.79702 0.13116,-0.0792 -0.32065,0.0517 -0.42764,0.32767 -0.027,0.0697 -0.0364,0.14502 -0.0546,0.21752 -5.52323,3.40192 -2.10833,1.78312 -4.61533,2.408 -1.36527,0.63963 -0.23045,0.11492 3.16594,-1.86703 0.0743,-0.0434 -0.1511,0.0825 -0.22397,0.12827 -0.30885,0.19389 -0.56403,0.43736 -0.78133,0.73168 -0.19829,0.23595 -0.37187,0.49222 -0.57416,0.72475 -0.2948,0.33888 -0.70697,0.54926 -1.01114,0.87985 -0.46292,0.37575 -0.89549,0.79415 -1.43406,1.06924 -1.28291,0.74524 -2.56288,1.49556 -3.84873,2.23573 -0.31926,0.18378 -0.6633,0.32955 -0.99019,0.49927 -0.0955,0.0496 -0.37783,0.20628 -0.28486,0.15204 1.10386,-0.64398 2.21182,-1.28092 3.31773,-1.92138 -1.69553,0.98005 -3.02168,2.05014 -4.79991,2.56918 -0.23959,0.074 -0.4874,0.12915 -0.72092,0.22144 -1.27135,0.50248 -3.12346,2.31954 2.81248,-1.66493 -0.57861,0.32547 -1.14343,0.63428 -1.54636,1.18444 -1.35738,1.39022 -3.16758,2.34491 -5.01663,2.90533 -1.32265,0.4979 -2.93096,1.65073 2.93288,-1.76722 0.0751,-0.0438 -0.15558,0.078 -0.22924,0.12414 -0.16663,0.10427 -0.31338,0.23832 -0.4823,0.33929 -12.41021,7.16216 2.51549,-1.46709 -0.92823,0.53759 -3.9604,2.30545 -2.47526,1.51752 -3.99421,2.31918 -1.47169,0.70798 -4.43576,2.0846 1.87746,-1.24628 -0.63038,0.41309 -1.17772,0.95049 -1.85581,1.29169 -0.43522,0.30367 -0.85866,0.61416 -1.13095,1.08241 -0.28207,0.40495 -0.67771,0.71249 -1.01396,1.07164 -0.33486,0.33026 -0.67186,0.65859 -1.02699,0.96722 -0.38905,0.33207 -0.76775,0.67044 -1.09899,1.05973 -1.26818,1.39151 -3.13682,2.17935 -4.92865,2.68508 -0.56547,0.21068 -1.09084,0.5031 -1.65047,0.72713 -0.58522,0.21293 -1.18753,0.38727 -1.74394,0.67202 1.10727,-0.64963 2.21453,-1.29927 3.3218,-1.9489 -0.0909,0.0576 -0.28498,0.17614 -0.36169,0.24417 -0.22132,0.1963 -0.33307,0.47792 -0.57409,0.65599 -0.52148,0.41967 -0.99739,0.89295 -1.44819,1.37848 -0.46971,0.40074 -1.00941,0.72106 -1.48992,1.11186 -0.4171,0.39775 -0.69608,0.87447 -1.00462,1.35749 -1.23624,1.62262 -3.85387,1.84756 -5.09823,3.30719 -0.10883,0.056 -0.21766,0.11205 -0.3265,0.16808 -0.10933,0.053 -0.21965,0.10402 -0.328,0.15901 -0.10756,0.0546 -0.42368,0.23069 -0.31964,0.16965 1.06983,-0.62767 2.1486,-1.24001 3.21725,-1.86968 0.0992,-0.0584 -0.21435,0.0892 -0.30835,0.15572 -0.0915,0.0647 -0.16123,0.15567 -0.24185,0.2335 -1.3445,1.26431 -2.16396,1.44469 -4.3729,2.72015 -1.09183,0.63044 2.17721,-1.27202 3.26811,-1.90406 0.14963,-0.0867 -0.54823,0.34568 -0.45057,0.25714 -0.48605,0.31209 -0.86133,0.73691 -1.14101,1.24556 -0.4014,0.57624 -0.7442,1.18836 -1.1313,1.77297 -0.29433,0.46107 -0.66341,0.87195 -0.93818,1.34399 -0.7846,1.49689 -3.21686,2.18681 -4.24171,2.84095 -0.99802,0.63702 4.70656,-2.82456 3.07981,-1.76951 -0.57703,0.33309 -1.11039,0.72897 -1.67725,1.07923 -0.40167,0.30716 -0.56809,0.58327 -0.54089,1.08893 -0.002,0.39903 -0.004,0.80377 -0.12077,1.18929 -0.0224,0.044 -0.15932,0.31985 -0.18652,0.34717 -0.0436,0.0438 -0.11094,0.0545 -0.16436,0.0854 -0.24482,0.14197 -0.42388,0.34513 -0.61335,0.55322 -0.59145,0.75533 -1.2701,1.42971 -1.94841,2.10652 -0.63548,0.73661 -1.26636,1.47541 -1.91636,2.19911 -0.51785,0.6771 -0.95381,1.40545 -1.41942,2.11695 -0.24509,0.62023 -0.7739,1.04876 -1.06548,1.64606 -0.40002,0.6374 -0.79528,1.27585 -0.94555,2.0247 -0.34845,0.99808 -0.71647,1.99393 -1.14019,2.96203 -0.31587,0.71887 -0.56815,1.47129 -1.12097,2.05209 -0.28182,0.33796 -0.55386,0.7037 -0.86892,1.0119 -1.27536,1.24755 -3.0479,1.84156 -4.58602,2.72721 -0.84284,0.47294 -1.679,0.96218 -2.56372,1.35453 0,0 3.26231,-2.57826 3.26231,-2.57826 z"
       inkscape:connector-curvature="0" />
  </g>
</svg>
