<?xml version="1.0" encoding="UTF-8" standalone="no"?>
<!-- Created with Inkscape (http://www.inkscape.org/) -->

<svg
   xmlns:dc="http://purl.org/dc/elements/1.1/"
   xmlns:cc="http://creativecommons.org/ns#"
   xmlns:rdf="http://www.w3.org/1999/02/22-rdf-syntax-ns#"
   xmlns:svg="http://www.w3.org/2000/svg"
   xmlns="http://www.w3.org/2000/svg"
   xmlns:xlink="http://www.w3.org/1999/xlink"
   xmlns:sodipodi="http://sodipodi.sourceforge.net/DTD/sodipodi-0.dtd"
   xmlns:inkscape="http://www.inkscape.org/namespaces/inkscape"
   width="210mm"
   height="297mm"
   viewBox="0 0 210 297"
   version="1.1"
   id="svg8"
   inkscape:version="0.92.3 (2405546, 2018-03-11)"
   sodipodi:docname="trillionYearsOfEarth-cover.svg">
  <defs
     id="defs2">
    <linearGradient
       inkscape:collect="always"
       id="linearGradient861">
      <stop
         style="stop-color:#939dac;stop-opacity:1;"
         offset="0"
         id="stop857" />
      <stop
         style="stop-color:#939dac;stop-opacity:0;"
         offset="1"
         id="stop859" />
    </linearGradient>
    <linearGradient
       inkscape:collect="always"
       id="linearGradient847">
      <stop
         style="stop-color:#000000;stop-opacity:1;"
         offset="0"
         id="stop843" />
      <stop
         style="stop-color:#000000;stop-opacity:0;"
         offset="1"
         id="stop845" />
    </linearGradient>
    <radialGradient
       inkscape:collect="always"
       xlink:href="#linearGradient847"
       id="radialGradient855"
       cx="112.64033"
       cy="132.55093"
       fx="112.64033"
       fy="132.55093"
       r="50.035892"
       gradientTransform="matrix(1,0,0,0.95928079,-3.7837838,17.518786)"
       gradientUnits="userSpaceOnUse" />
    <linearGradient
       inkscape:collect="always"
       xlink:href="#linearGradient861"
       id="linearGradient867"
       x1="62.604435"
       y1="132.55093"
       x2="162.67622"
       y2="132.55093"
       gradientUnits="userSpaceOnUse"
       gradientTransform="translate(-3.7837838,12.121416)" />
  </defs>
  <sodipodi:namedview
     id="base"
     pagecolor="#ffffff"
     bordercolor="#666666"
     borderopacity="1.0"
     inkscape:pageopacity="0.0"
     inkscape:pageshadow="2"
     inkscape:zoom="0.77949635"
     inkscape:cx="396.85039"
     inkscape:cy="575.38253"
     inkscape:document-units="mm"
     inkscape:current-layer="layer1"
     showgrid="false"
     units="mm"
     showguides="false"
     inkscape:window-width="1916"
     inkscape:window-height="1036"
     inkscape:window-x="0"
     inkscape:window-y="20"
     inkscape:window-maximized="1" />
  <metadata
     id="metadata5">
    <rdf:RDF>
      <cc:Work
         rdf:about="">
        <dc:format>image/svg+xml</dc:format>
        <dc:type
           rdf:resource="http://purl.org/dc/dcmitype/StillImage" />
        <dc:title></dc:title>
      </cc:Work>
    </rdf:RDF>
  </metadata>
  <g
     inkscape:label="Layer 1"
     inkscape:groupmode="layer"
     id="layer1"
     transform="translate(0,8.392334e-6)">
    <g
       id="g865"
       transform="matrix(0.99212439,0,0,1.4031496,0.33675537,-147.6914)"
       style="fill:#000000;fill-opacity:1">
      <rect
         y="105.25705"
         x="-0.33942857"
         height="211.66667"
         width="211.66701"
         id="rect862"
         style="fill:#000000;fill-opacity:1;fill-rule:evenodd;stroke:none;stroke-width:0.61102945;stroke-linecap:round;stroke-miterlimit:4;stroke-dasharray:none;stroke-opacity:1" />
    </g>
    <ellipse
       style="fill:url(#linearGradient867);fill-opacity:1;fill-rule:nonzero;stroke:url(#radialGradient855);stroke-width:0.52916664;stroke-linecap:round;stroke-miterlimit:4;stroke-dasharray:none;stroke-opacity:1"
       id="path817"
       cx="108.85651"
       cy="144.67235"
       rx="49.771309"
       ry="47.733887" />
    <path
       sodipodi:type="star"
       style="fill:#ffff00;fill-opacity:0.95266269;fill-rule:nonzero;stroke:none;stroke-width:0.52916664;stroke-linecap:round;stroke-miterlimit:4;stroke-dasharray:none;stroke-opacity:1"
       id="path825"
       sodipodi:sides="5"
       sodipodi:cx="17.172556"
       sodipodi:cy="152.38542"
       sodipodi:r1="2.7955427"
       sodipodi:r2="1.3977714"
       sodipodi:arg1="-2.4668517"
       sodipodi:arg2="-1.8385332"
       inkscape:flatsided="false"
       inkscape:rounded="0.12"
       inkscape:randomized="0"
       d="m 14.989604,150.63906 c 0.139164,-0.17395 1.598338,0.45732 1.813172,0.39839 0.214834,-0.0589 1.147654,-1.34639 1.356099,-1.26779 0.208445,0.0786 0.05897,1.66143 0.18141,1.84753 0.122437,0.18611 1.63514,0.67543 1.624802,0.89796 -0.01034,0.22253 -1.561891,0.5695 -1.701055,0.74345 -0.139164,0.17396 -0.137082,1.76383 -0.351916,1.82277 -0.214834,0.0589 -1.024275,-1.30947 -1.23272,-1.38807 -0.208445,-0.0786 -1.719861,0.41468 -1.842298,0.22858 -0.122437,-0.18611 0.928855,-1.37879 0.939192,-1.60132 0.01034,-0.22253 -0.92585,-1.50755 -0.786686,-1.6815 z"
       inkscape:transform-center-x="-0.2236031"
       inkscape:transform-center-y="0.039283918" />
    <path
       sodipodi:type="star"
       style="fill:#ffff00;fill-opacity:0.95266269;fill-rule:nonzero;stroke:none;stroke-width:0.52916664;stroke-linecap:round;stroke-miterlimit:4;stroke-dasharray:none;stroke-opacity:1"
       id="path827"
       sodipodi:sides="5"
       sodipodi:cx="45.259876"
       sodipodi:cy="168.10269"
       sodipodi:r1="3.5168948"
       sodipodi:r2="1.7584474"
       sodipodi:arg1="0.42662749"
       sodipodi:arg2="1.054946"
       inkscape:flatsided="false"
       inkscape:rounded="0.12"
       inkscape:randomized="0"
       d="m 48.461539,169.55799 c -0.115969,0.25514 -2.09048,-0.0639 -2.334265,0.0743 -0.243786,0.13824 -0.98362,1.9965 -1.262103,1.96505 -0.278484,-0.0315 -0.585206,-2.00792 -0.792016,-2.19705 -0.20681,-0.18914 -2.202741,-0.31853 -2.258883,-0.5931 -0.05614,-0.27457 1.728803,-1.17705 1.844773,-1.43218 0.11597,-0.25513 -0.377749,-2.19336 -0.133964,-2.3316 0.243785,-0.13824 1.653665,1.28046 1.932148,1.31191 0.278483,0.0315 1.96928,-1.03704 2.176089,-0.84791 0.20681,0.18914 -0.706782,1.96842 -0.650639,2.24299 0.05614,0.27457 1.59483,1.55243 1.47886,1.80756 z"
       inkscape:transform-center-x="0.11950046"
       inkscape:transform-center-y="0.21316638" />
    <path
       sodipodi:type="star"
       style="fill:#ffff00;fill-opacity:0.95266269;fill-rule:nonzero;stroke:none;stroke-width:0.52916664;stroke-linecap:round;stroke-miterlimit:4;stroke-dasharray:none;stroke-opacity:1"
       id="path829"
       sodipodi:sides="5"
       sodipodi:cx="30.561331"
       sodipodi:cy="157.62451"
       sodipodi:r1="2.7458572"
       sodipodi:r2="1.3729286"
       sodipodi:arg1="0.55859932"
       sodipodi:arg2="1.1869178"
       inkscape:flatsided="false"
       inkscape:rounded="0.12"
       inkscape:randomized="0"
       d="m 32.889813,159.07981 c -0.11597,0.18555 -1.611407,-0.26424 -1.814294,-0.18229 -0.202886,0.082 -0.966415,1.44418 -1.178722,1.39122 -0.212306,-0.0529 -0.24664,-1.61419 -0.387273,-1.78183 -0.140634,-0.16763 -1.672137,-0.47283 -1.68738,-0.69111 -0.01524,-0.21828 1.458976,-0.73339 1.574946,-0.91894 0.115969,-0.18555 -0.06702,-1.73641 0.135864,-1.81836 0.202886,-0.0819 1.148337,1.16094 1.360643,1.2139 0.212307,0.053 1.630715,-0.60033 1.771348,-0.43269 0.140634,0.16763 -0.749264,1.45088 -0.734021,1.66916 0.01524,0.21828 1.074859,1.36539 0.958889,1.55094 z"
       inkscape:transform-center-x="0.20097759"
       inkscape:transform-center-y="0.057920513" />
    <path
       sodipodi:type="star"
       style="fill:#ffff00;fill-opacity:0.95266269;fill-rule:nonzero;stroke:none;stroke-width:0.52916664;stroke-linecap:round;stroke-miterlimit:4;stroke-dasharray:none;stroke-opacity:1"
       id="path831"
       sodipodi:sides="5"
       sodipodi:cx="22.266113"
       sodipodi:cy="183.0923"
       sodipodi:r1="3.3974354"
       sodipodi:r2="1.6987177"
       sodipodi:arg1="0.17219081"
       sodipodi:arg2="0.80050935"
       inkscape:flatsided="false"
       inkscape:rounded="0.12"
       inkscape:randomized="0"
       d="m 25.613307,183.67442 c -0.04639,0.26673 -1.969998,0.44855 -2.164307,0.63707 -0.194309,0.18852 -0.434166,2.10576 -0.702177,2.14407 -0.26801,0.0383 -1.035353,-1.73498 -1.274694,-1.86152 -0.239342,-0.12654 -2.136862,0.2378 -2.256114,-0.005 -0.119252,-0.24306 1.330114,-1.52082 1.376502,-1.78755 0.04639,-0.26673 -0.886487,-1.95879 -0.692178,-2.14732 0.194309,-0.18852 1.857409,0.79506 2.125419,0.75675 0.268011,-0.0383 1.588983,-1.4484 1.828324,-1.32185 0.239342,0.12654 -0.182171,2.01218 -0.06292,2.25524 0.119252,0.24305 1.868533,1.06363 1.822145,1.33036 z"
       inkscape:transform-center-x="-0.14551435"
       inkscape:transform-center-y="0.17617313" />
    <path
       sodipodi:type="star"
       style="fill:#ffff00;fill-opacity:0.95266269;fill-rule:nonzero;stroke:none;stroke-width:0.52916664;stroke-linecap:round;stroke-miterlimit:4;stroke-dasharray:none;stroke-opacity:1"
       id="path833"
       sodipodi:sides="5"
       sodipodi:cx="184.38669"
       sodipodi:cy="87.478996"
       sodipodi:r1="3.450016"
       sodipodi:r2="1.725008"
       sodipodi:arg1="1.088283"
       sodipodi:arg2="1.7166016"
       inkscape:flatsided="false"
       inkscape:rounded="0.12"
       inkscape:randomized="0"
       d="m 185.98752,90.535129 c -0.24354,0.127567 -1.57945,-1.309485 -1.85146,-1.349428 -0.272,-0.03994 -1.96466,0.952371 -2.16124,0.760174 -0.19658,-0.192197 0.75731,-1.906799 0.71125,-2.177837 -0.0461,-0.271037 -1.51288,-1.574209 -1.39083,-1.82056 0.12204,-0.246351 2.0475,0.131019 2.29103,0.0035 0.24354,-0.127567 1.02966,-1.925286 1.30167,-1.885342 0.27201,0.03994 0.5081,1.987772 0.70468,2.179969 0.19658,0.192197 2.14924,0.384317 2.19531,0.655355 0.0461,0.271037 -1.73347,1.097492 -1.85552,1.343844 -0.12204,0.246351 0.29865,2.162806 0.0551,2.290373 z"
       inkscape:transform-center-x="-0.15172621"
       inkscape:transform-center-y="-0.17495972" />
    <path
       sodipodi:type="star"
       style="fill:#ffff00;fill-opacity:0.95266269;fill-rule:nonzero;stroke:none;stroke-width:0.52916664;stroke-linecap:round;stroke-miterlimit:4;stroke-dasharray:none;stroke-opacity:1"
       id="path835"
       sodipodi:sides="5"
       sodipodi:cx="187.15176"
       sodipodi:cy="134.04864"
       sodipodi:r1="6.27807"
       sodipodi:r2="3.139035"
       sodipodi:arg1="0.80179014"
       sodipodi:arg2="1.4301087"
       inkscape:flatsided="false"
       inkscape:rounded="0.12"
       inkscape:randomized="0"
       d="m 191.51767,138.56008 c -0.35951,0.34791 -3.4304,-1.47357 -3.92574,-1.40341 -0.49534,0.0702 -2.93968,2.67271 -3.38166,2.43831 -0.44197,-0.2344 0.3414,-3.71786 0.12161,-4.16728 -0.21979,-0.44942 -3.45031,-1.96989 -3.36396,-2.46267 0.0864,-0.49278 3.64139,-0.82419 4.00089,-1.1721 0.35951,-0.34791 0.80727,-3.89017 1.30262,-3.96033 0.49534,-0.0701 1.9091,3.20848 2.35108,3.44288 0.44197,0.2344 3.94923,-0.43437 4.16902,0.0151 0.21979,0.44942 -2.46149,2.80714 -2.54784,3.29992 -0.0863,0.49278 1.63348,3.62172 1.27398,3.96963 z"
       inkscape:transform-center-x="0.26648901"
       inkscape:transform-center-y="-0.32794713" />
    <path
       sodipodi:type="star"
       style="fill:#ffff00;fill-opacity:0.95266269;fill-rule:nonzero;stroke:none;stroke-width:0.52916664;stroke-linecap:round;stroke-miterlimit:4;stroke-dasharray:none;stroke-opacity:1"
       id="path837"
       sodipodi:sides="5"
       sodipodi:cx="189.48024"
       sodipodi:cy="166.64738"
       sodipodi:r1="4.7022228"
       sodipodi:r2="2.3511114"
       sodipodi:arg1="1.1902899"
       sodipodi:arg2="1.8186085"
       inkscape:flatsided="false"
       inkscape:rounded="0.12"
       inkscape:randomized="0"
       d="m 191.2266,171.01329 c -0.34791,0.13916 -1.95979,-1.99471 -2.32305,-2.08662 -0.36326,-0.0919 -2.79601,1.01862 -3.03588,0.73074 -0.23986,-0.28788 1.29147,-2.48026 1.26663,-2.85415 -0.0248,-0.37389 -1.83278,-2.3444 -1.63311,-2.66148 0.19967,-0.31708 2.75796,0.46182 3.10587,0.32265 0.34791,-0.13916 1.66329,-2.46753 2.02656,-2.37562 0.36326,0.0919 0.41304,2.76568 0.6529,3.05356 0.23987,0.28788 2.86075,0.81938 2.8856,1.19326 0.0248,0.37389 -2.50269,1.24748 -2.70235,1.56456 -0.19967,0.31708 0.10474,2.97394 -0.24317,3.1131 z"
       inkscape:transform-center-x="-0.34880403"
       inkscape:transform-center-y="-0.094403256" />
    <path
       sodipodi:type="star"
       style="fill:#ffff00;fill-opacity:0.95266269;fill-rule:nonzero;stroke:none;stroke-width:0.52916664;stroke-linecap:round;stroke-miterlimit:4;stroke-dasharray:none;stroke-opacity:1"
       id="path839"
       sodipodi:sides="5"
       sodipodi:cx="173.76299"
       sodipodi:cy="187.89481"
       sodipodi:r1="5.3668866"
       sodipodi:r2="2.6834433"
       sodipodi:arg1="1.3521274"
       sodipodi:arg2="1.9804459"
       inkscape:flatsided="false"
       inkscape:rounded="0.12"
       inkscape:randomized="0"
       d="m 174.92723,193.13389 c -0.4175,0.0928 -1.84074,-2.60733 -2.23303,-2.77767 -0.39229,-0.17034 -3.33686,0.6332 -3.55411,0.26481 -0.21725,-0.36839 1.9109,-2.55635 1.95168,-2.98208 0.0408,-0.42573 -1.63336,-2.97788 -1.35013,-3.29833 0.28322,-0.32045 3.02173,1.02742 3.43922,0.93464 0.4175,-0.0928 2.3274,-2.47362 2.71969,-2.30329 0.39229,0.17034 -0.0434,3.19133 0.17388,3.55972 0.21725,0.36839 3.07177,1.4491 3.03099,1.87482 -0.0408,0.42573 -3.04854,0.94494 -3.33176,1.26539 -0.28323,0.32045 -0.42894,3.36922 -0.84643,3.46199 z"
       inkscape:transform-center-x="-0.3522023"
       inkscape:transform-center-y="0.15493272" />
    <path
       sodipodi:type="star"
       style="fill:#ffff00;fill-opacity:0.95266269;fill-rule:nonzero;stroke:none;stroke-width:0.52916664;stroke-linecap:round;stroke-miterlimit:4;stroke-dasharray:none;stroke-opacity:1"
       id="path841"
       sodipodi:sides="5"
       sodipodi:cx="69.272346"
       sodipodi:cy="99.266937"
       sodipodi:r1="1.2000723"
       sodipodi:r2="0.60003614"
       sodipodi:arg1="0.24497866"
       sodipodi:arg2="0.87329719"
       inkscape:flatsided="false"
       inkscape:rounded="0.12"
       inkscape:randomized="0"
       d="m 70.436588,99.557998 c -0.02319,0.09278 -0.70554,0.107413 -0.778837,0.168837 -0.0733,0.06142 -0.207047,0.730695 -0.302449,0.737305 -0.0954,0.007 -0.32018,-0.637816 -0.401248,-0.688544 -0.08107,-0.05073 -0.758911,0.02888 -0.794679,-0.05981 -0.03577,-0.08869 0.507657,-0.501605 0.530851,-0.594381 0.02319,-0.09278 -0.261986,-0.712842 -0.188689,-0.774266 0.0733,-0.06142 0.633929,0.327806 0.729332,0.321195 0.0954,-0.0066 0.596995,-0.469443 0.678063,-0.418715 0.08107,0.05073 -0.115868,0.7042 -0.0801,0.792891 0.03577,0.08869 0.63095,0.42271 0.607756,0.515486 z"
       inkscape:transform-center-x="-0.025118762"
       inkscape:transform-center-y="0.088024792" />
    <ellipse
       style="fill:#000000;fill-opacity:1;fill-rule:nonzero;stroke:none;stroke-width:0.5840646;stroke-linecap:round;stroke-miterlimit:4;stroke-dasharray:none;stroke-opacity:1"
       id="path885"
       cx="107.1102"
       cy="144.45404"
       rx="28.378378"
       ry="28.887733" />
    <ellipse
       style="fill:#ff7f2a;fill-opacity:0.99444442;fill-rule:nonzero;stroke:none;stroke-width:0.52916664;stroke-linecap:round;stroke-miterlimit:4;stroke-dasharray:none;stroke-opacity:1"
       id="path887"
       cx="23.066528"
       cy="117.09438"
       rx="17.972973"
       ry="19.428274" />
    <text
       xml:space="preserve"
       style="font-style:normal;font-variant:normal;font-weight:normal;font-stretch:normal;font-size:20.65443345px;line-height:125%;font-family:'DejaVu Sans Mono';-inkscape-font-specification:'DejaVu Sans Mono, Normal';font-variant-ligatures:normal;font-variant-caps:normal;font-variant-numeric:normal;font-feature-settings:normal;text-align:center;letter-spacing:0px;word-spacing:0px;writing-mode:lr;text-anchor:middle;fill:#e3dbdb;fill-opacity:1;stroke:none;stroke-width:1.37696731px;stroke-linecap:butt;stroke-linejoin:miter;stroke-opacity:1;"
       x="172.68245"
       y="19.410736"
       id="text869"
       transform="scale(0.59910488,1.6691568)"><tspan
         sodipodi:role="line"
         id="tspan883">Trillion Years of Earth:</tspan><tspan
         sodipodi:role="line"
         id="tspan885">A short prophecy.</tspan></text>
    <text
       xml:space="preserve"
       style="font-style:normal;font-variant:normal;font-weight:normal;font-stretch:normal;font-size:17.29881096px;line-height:125%;font-family:'DejaVu Sans Mono';-inkscape-font-specification:'DejaVu Sans Mono, Normal';font-variant-ligatures:normal;font-variant-caps:normal;font-variant-numeric:normal;font-feature-settings:normal;text-align:start;letter-spacing:0px;word-spacing:0px;writing-mode:lr-tb;text-anchor:start;fill:#fff6d5;fill-opacity:1;stroke:none;stroke-width:1.15325093px;stroke-linecap:butt;stroke-linejoin:miter;stroke-opacity:1"
       x="69.906067"
       y="166.09869"
       id="text889"
       transform="scale(0.65487018,1.5270202)"><tspan
         sodipodi:role="line"
         id="tspan887"
         x="69.906067"
         y="166.09869"
         style="font-style:normal;font-variant:normal;font-weight:normal;font-stretch:normal;font-size:17.29881096px;font-family:'DejaVu Sans Mono';-inkscape-font-specification:'DejaVu Sans Mono, Normal';font-variant-ligatures:normal;font-variant-caps:normal;font-variant-numeric:normal;font-feature-settings:normal;text-align:start;writing-mode:lr-tb;text-anchor:start;fill:#fff6d5;stroke-width:1.15325093px">By Logan Streondj</tspan></text>
    <path
       sodipodi:type="star"
       style="fill:#ffff00;fill-opacity:1;fill-rule:evenodd;stroke:none;stroke-width:0.52916664;stroke-linecap:round;stroke-miterlimit:4;stroke-dasharray:none;stroke-opacity:1"
       id="path891"
       sodipodi:sides="5"
       sodipodi:cx="44.465141"
       sodipodi:cy="211.46399"
       sodipodi:r1="3.5437384"
       sodipodi:r2="1.7718691"
       sodipodi:arg1="1.2793395"
       sodipodi:arg2="1.907658"
       inkscape:flatsided="false"
       inkscape:rounded="0.12"
       inkscape:randomized="0"
       d="m 45.483427,214.85827 c -0.270483,0.0812 -1.337414,-1.62866 -1.603936,-1.722 -0.266521,-0.0933 -2.167082,0.57723 -2.32784,0.34506 -0.160757,-0.23217 1.135667,-1.77524 1.142078,-2.05756 0.0064,-0.28232 -1.218639,-1.88265 -1.047509,-2.10728 0.171129,-0.22464 2.039295,0.5315 2.309778,0.45036 0.270484,-0.0812 1.413922,-1.74077 1.680444,-1.64743 0.266521,0.0933 0.124687,2.10373 0.285444,2.3359 0.160758,0.23217 2.092491,0.80679 2.08608,1.08911 -0.0064,0.28232 -1.962234,0.76868 -2.133364,0.99331 -0.17113,0.22463 -0.120691,2.23939 -0.391175,2.32053 z"
       inkscape:transform-center-x="0.44653008"
       inkscape:transform-center-y="0.3623855" />
    <path
       sodipodi:type="star"
       style="fill:#ffff00;fill-opacity:1;fill-rule:evenodd;stroke:none;stroke-width:0.52916664;stroke-linecap:round;stroke-miterlimit:4;stroke-dasharray:none;stroke-opacity:1"
       id="path893"
       sodipodi:sides="5"
       sodipodi:cx="13.237714"
       sodipodi:cy="228.77483"
       sodipodi:r1="5.0914283"
       sodipodi:r2="2.5457144"
       sodipodi:arg1="0.92729522"
       sodipodi:arg2="1.5556137"
       inkscape:flatsided="false"
       inkscape:rounded="0.12"
       inkscape:randomized="0"
       d="m 16.292571,232.84797 c -0.32458,0.24343 -2.61053,-1.53388 -3.016208,-1.52772 -0.405678,0.006 -2.636614,1.85206 -2.968435,1.61859 -0.3318215,-0.23347 0.65211,-2.95676 0.52089,-3.34068 -0.13122,-0.38392 -2.5761718,-1.93525 -2.4566686,-2.32298 0.1195033,-0.38772 3.0135556,-0.29349 3.3381356,-0.53693 0.32458,-0.24343 1.044453,-3.04811 1.450131,-3.05427 0.405678,-0.006 1.21037,2.77537 1.542191,3.00884 0.331821,0.23347 3.221679,0.0514 3.352898,0.43533 0.13122,0.38392 -2.265506,2.00877 -2.385009,2.3965 -0.119503,0.38772 0.946655,3.07988 0.622075,3.32332 z"
       inkscape:transform-center-x="0.023408935"
       inkscape:transform-center-y="-0.45321519" />
    <path
       sodipodi:type="star"
       style="fill:#ffff00;fill-opacity:1;fill-rule:evenodd;stroke:none;stroke-width:0.52916664;stroke-linecap:round;stroke-miterlimit:4;stroke-dasharray:none;stroke-opacity:1"
       id="path895"
       sodipodi:sides="5"
       sodipodi:cx="21.723427"
       sodipodi:cy="252.87427"
       sodipodi:r1="7.7401619"
       sodipodi:r2="3.8700809"
       sodipodi:arg1="0.90975316"
       sodipodi:arg2="1.5380717"
       inkscape:flatsided="false"
       inkscape:rounded="0.12"
       inkscape:randomized="0"
       d="m 26.475427,258.98398 c -0.48687,0.37868 -4.008909,-2.26188 -4.625376,-2.2417 -0.616467,0.0202 -3.958265,2.88544 -4.468859,2.53941 -0.510594,-0.34602 0.912361,-4.51166 0.702669,-5.09172 -0.209692,-0.58005 -3.967388,-2.87288 -3.796082,-3.46541 0.171305,-0.59253 4.572778,-0.52647 5.059648,-0.90515 0.48687,-0.37868 1.506284,-4.66098 2.122751,-4.68116 0.616467,-0.0202 1.913772,4.18628 2.424366,4.5323 0.510594,0.34603 4.898323,-0.008 5.108015,0.5723 0.209692,0.58006 -3.390002,3.11374 -3.561308,3.70627 -0.171306,0.59253 1.521046,4.65618 1.034176,5.03486 z"
       inkscape:transform-center-x="0.076692217"
       inkscape:transform-center-y="-0.64983978" />
    <path
       sodipodi:type="star"
       style="fill:#ffff00;fill-opacity:1;fill-rule:evenodd;stroke:none;stroke-width:0.52916664;stroke-linecap:round;stroke-miterlimit:4;stroke-dasharray:none;stroke-opacity:1"
       id="path897"
       sodipodi:sides="5"
       sodipodi:cx="49.556572"
       sodipodi:cy="277.65256"
       sodipodi:r1="4.7641072"
       sodipodi:r2="2.3820534"
       sodipodi:arg1="0.071307465"
       sodipodi:arg2="0.699626"
       inkscape:flatsided="false"
       inkscape:rounded="0.12"
       inkscape:randomized="0"
       d="m 54.308572,277.99199 c -0.02705,0.37867 -2.685068,0.90399 -2.929531,1.19445 -0.244464,0.29045 -0.308335,2.99913 -0.676836,3.09043 -0.368501,0.0913 -1.689481,-2.27431 -2.041265,-2.41705 -0.351785,-0.14274 -2.94763,0.63354 -3.148328,0.31129 -0.200698,-0.32226 1.640912,-2.30959 1.66796,-2.68827 0.02705,-0.37867 -1.513401,-2.60758 -1.268938,-2.89804 0.244463,-0.29046 2.70362,0.8469 3.072122,0.7556 0.368501,-0.0913 2.012296,-2.24512 2.364081,-2.10237 0.351784,0.14274 0.03002,2.833 0.230715,3.15525 0.200698,0.32226 2.757069,1.22003 2.73002,1.59871 z"
       inkscape:transform-center-x="-0.34648366"
       inkscape:transform-center-y="0.1027777" />
    <path
       sodipodi:type="star"
       style="fill:#ffff00;fill-opacity:1;fill-rule:evenodd;stroke:none;stroke-width:0.52916664;stroke-linecap:round;stroke-miterlimit:4;stroke-dasharray:none;stroke-opacity:1"
       id="path899"
       sodipodi:sides="5"
       sodipodi:cx="77.729141"
       sodipodi:cy="279.01025"
       sodipodi:r1="4.7520003"
       sodipodi:r2="2.3760002"
       sodipodi:arg1="0"
       sodipodi:arg2="0.62831853"
       inkscape:flatsided="false"
       inkscape:rounded="0.12"
       inkscape:randomized="0"
       d="m 82.481142,279.01025 c 0,0.37868 -2.607196,1.09023 -2.829776,1.39658 -0.222581,0.30636 -0.09363,3.00583 -0.453776,3.12284 -0.360143,0.11702 -1.84253,-2.14269 -2.202673,-2.25971 -0.360143,-0.11701 -2.887644,0.83981 -3.110225,0.53345 -0.22258,-0.30636 1.468449,-2.41448 1.468449,-2.79316 0,-0.37867 -1.691029,-2.4868 -1.468449,-2.79315 0.222581,-0.30636 2.750082,0.65046 3.110225,0.53344 0.360143,-0.11701 1.84253,-2.37672 2.202673,-2.25971 0.360143,0.11702 0.231195,2.81649 0.453776,3.12285 0.22258,0.30635 2.829776,1.0179 2.829776,1.39657 z"
       inkscape:transform-center-x="-0.44367881"
       inkscape:transform-center-y="-3.5150901e-06" />
    <path
       sodipodi:type="star"
       style="fill:#ffff00;fill-opacity:1;fill-rule:evenodd;stroke:none;stroke-width:0.52916664;stroke-linecap:round;stroke-miterlimit:4;stroke-dasharray:none;stroke-opacity:1"
       id="path901"
       sodipodi:sides="5"
       sodipodi:cx="104.544"
       sodipodi:cy="210.44569"
       sodipodi:r1="5.3020439"
       sodipodi:r2="2.651022"
       sodipodi:arg1="0.69473828"
       sodipodi:arg2="1.3230568"
       inkscape:flatsided="false"
       inkscape:rounded="0.12"
       inkscape:randomized="0"
       d="m 108.61714,213.83998 c -0.27048,0.32458 -3.01347,-0.92781 -3.42308,-0.8242 -0.4096,0.1036 -2.22727,2.50954 -2.61955,2.3526 -0.39228,-0.15695 -0.0488,-3.15269 -0.27393,-3.51024 -0.22511,-0.35754 -3.074977,-1.34277 -3.046934,-1.76435 0.02804,-0.42157 2.983294,-1.02066 3.253784,-1.34524 0.27048,-0.32458 0.32683,-3.33942 0.73644,-3.44302 0.40961,-0.10361 1.89259,2.52188 2.28487,2.67882 0.39228,0.15695 3.27698,-0.7211 3.50209,-0.36355 0.22511,0.35754 -1.81361,2.57927 -1.84165,3.00084 -0.028,0.42158 1.69845,2.89376 1.42796,3.21834 z"
       inkscape:transform-center-x="0.3931893"
       inkscape:transform-center-y="-0.10656227" />
    <path
       sodipodi:type="star"
       style="fill:#ffff00;fill-opacity:1;fill-rule:evenodd;stroke:none;stroke-width:0.52916664;stroke-linecap:round;stroke-miterlimit:4;stroke-dasharray:none;stroke-opacity:1"
       id="path903"
       sodipodi:sides="5"
       sodipodi:cx="152.40343"
       sodipodi:cy="219.27084"
       sodipodi:r1="6.4491429"
       sodipodi:r2="3.2245715"
       sodipodi:arg1="0"
       sodipodi:arg2="0.62831853"
       inkscape:flatsided="false"
       inkscape:rounded="0.12"
       inkscape:randomized="0"
       d="m 158.85257,219.27084 c 0,0.51392 -3.53834,1.47959 -3.84041,1.89536 -0.30207,0.41577 -0.12707,4.07933 -0.61584,4.23814 -0.48876,0.15881 -2.50057,-2.90794 -2.98934,-3.06675 -0.48877,-0.15881 -3.91895,1.13973 -4.22102,0.72396 -0.30207,-0.41576 1.9929,-3.27679 1.9929,-3.79071 0,-0.51391 -2.29497,-3.37494 -1.9929,-3.79071 0.30207,-0.41577 3.73225,0.88277 4.22102,0.72396 0.48877,-0.15881 2.50058,-3.22556 2.98934,-3.06675 0.48877,0.15881 0.31377,3.82238 0.61584,4.23815 0.30207,0.41577 3.84041,1.38144 3.84041,1.89535 z"
       inkscape:transform-center-x="-0.60213494"
       inkscape:transform-center-y="-2.8394401e-06" />
    <path
       sodipodi:type="star"
       style="fill:#ffff00;fill-opacity:1;fill-rule:evenodd;stroke:none;stroke-width:0.52916664;stroke-linecap:round;stroke-miterlimit:4;stroke-dasharray:none;stroke-opacity:1"
       id="path905"
       sodipodi:sides="5"
       sodipodi:cx="178.53941"
       sodipodi:cy="240.65485"
       sodipodi:r1="10.126128"
       sodipodi:r2="5.0630636"
       sodipodi:arg1="1.3339476"
       sodipodi:arg2="1.9622661"
       inkscape:flatsided="false"
       inkscape:rounded="0.12"
       inkscape:randomized="0"
       d="m 180.91541,250.49828 c -0.7844,0.18933 -3.56191,-4.85551 -4.3078,-5.16339 -0.74588,-0.30789 -6.27316,1.30895 -6.69563,0.62145 -0.42246,-0.6875 3.51717,-4.88801 3.57949,-5.69253 0.0623,-0.80452 -3.18341,-5.56165 -2.6601,-6.17589 0.5233,-0.61424 5.73564,1.83455 6.52004,1.64521 0.78441,-0.18934 4.30572,-4.74624 5.0516,-4.43836 0.74589,0.30788 0.0276,6.02183 0.45012,6.70933 0.42246,0.6875 5.84449,2.6283 5.78217,3.43282 -0.0623,0.80452 -5.71856,1.88715 -6.24186,2.50139 -0.52331,0.61424 -0.69362,6.37063 -1.47803,6.55997 z"
       inkscape:transform-center-x="-0.71864224"
       inkscape:transform-center-y="0.23681032" />
    <path
       sodipodi:type="star"
       style="fill:#ffff00;fill-opacity:1;fill-rule:evenodd;stroke:none;stroke-width:0.52916664;stroke-linecap:round;stroke-miterlimit:4;stroke-dasharray:none;stroke-opacity:1"
       id="path907"
       sodipodi:sides="5"
       sodipodi:cx="140.86285"
       sodipodi:cy="276.29486"
       sodipodi:r1="4.1293268"
       sodipodi:r2="2.0646634"
       sodipodi:arg1="0.16514868"
       sodipodi:arg2="0.79346721"
       inkscape:flatsided="false"
       inkscape:rounded="0.12"
       inkscape:randomized="0"
       d="m 144.936,276.97372 c -0.0541,0.32458 -2.39049,0.56202 -2.62504,0.79281 -0.23454,0.23079 -0.50966,2.56305 -0.83507,2.6119 -0.32541,0.0489 -1.27321,-2.09981 -1.56519,-2.25156 -0.29197,-0.15175 -2.59509,0.30731 -2.74211,0.0129 -0.14702,-0.29439 1.6036,-1.85978 1.65769,-2.18436 0.0541,-0.32458 -1.09419,-2.37312 -0.85965,-2.60391 0.23455,-0.23079 2.26429,0.95041 2.5897,0.90156 0.32542,-0.0489 1.91885,-1.77398 2.21083,-1.62223 0.29197,0.15175 -0.20419,2.44716 -0.0572,2.74155 0.14701,0.29439 2.2801,1.27674 2.22601,1.60132 z"
       inkscape:transform-center-x="-0.18556143"
       inkscape:transform-center-y="0.20545941" />
    <path
       sodipodi:type="star"
       style="fill:#ffff00;fill-opacity:1;fill-rule:evenodd;stroke:none;stroke-width:0.52916664;stroke-linecap:round;stroke-miterlimit:4;stroke-dasharray:none;stroke-opacity:1"
       id="path909"
       sodipodi:sides="5"
       sodipodi:cx="165.64114"
       sodipodi:cy="284.10168"
       sodipodi:r1="7.1279998"
       sodipodi:r2="3.5639999"
       sodipodi:arg1="0"
       sodipodi:arg2="0.62831853"
       inkscape:flatsided="false"
       inkscape:rounded="0.12"
       inkscape:randomized="0"
       d="m 172.76914,284.10168 c 0,0.56802 -3.91079,1.63534 -4.24466,2.09487 -0.33387,0.45953 -0.14045,4.50874 -0.68066,4.68427 -0.54022,0.17552 -2.7638,-3.21404 -3.30401,-3.38957 -0.54022,-0.17553 -4.33147,1.2597 -4.66534,0.80017 -0.33387,-0.45954 2.20267,-3.62172 2.20267,-4.18974 0,-0.56801 -2.53654,-3.73019 -2.20267,-4.18973 0.33387,-0.45953 4.12512,0.9757 4.66534,0.80017 0.54021,-0.17553 2.76379,-3.56509 3.30401,-3.38957 0.54021,0.17553 0.34679,4.22473 0.68066,4.68427 0.33387,0.45953 4.24466,1.52685 4.24466,2.09486 z"
       inkscape:transform-center-x="-0.6655176"
       inkscape:transform-center-y="-3.579234e-06" />
    <path
       sodipodi:type="star"
       style="fill:#ffff00;fill-opacity:1;fill-rule:evenodd;stroke:none;stroke-width:0.52916664;stroke-linecap:round;stroke-miterlimit:4;stroke-dasharray:none;stroke-opacity:1"
       id="path911"
       sodipodi:sides="5"
       sodipodi:cx="189.06171"
       sodipodi:cy="247.44341"
       sodipodi:r1="3.8700809"
       sodipodi:r2="1.9350405"
       sodipodi:arg1="0.90975316"
       sodipodi:arg2="1.5380717"
       inkscape:flatsided="false"
       inkscape:rounded="0.12"
       inkscape:randomized="0"
       d="m 191.43771,250.49826 c -0.24344,0.18934 -2.00446,-1.13094 -2.31269,-1.12085 -0.30823,0.0101 -1.97913,1.44272 -2.23443,1.26971 -0.2553,-0.17301 0.45618,-2.25583 0.35133,-2.54586 -0.10484,-0.29003 -1.98369,-1.43644 -1.89804,-1.73271 0.0857,-0.29626 2.28639,-0.26324 2.52983,-0.45257 0.24343,-0.18934 0.75314,-2.33049 1.06137,-2.34058 0.30824,-0.0101 0.95689,2.09314 1.21219,2.26615 0.25529,0.17301 2.44916,-0.004 2.554,0.28615 0.10485,0.29003 -1.695,1.55687 -1.78065,1.85313 -0.0857,0.29627 0.76052,2.32809 0.51709,2.51743 z"
       inkscape:transform-center-x="0.038348354"
       inkscape:transform-center-y="-0.32492142" />
    <path
       sodipodi:type="star"
       style="fill:#ffff00;fill-opacity:1;fill-rule:evenodd;stroke:none;stroke-width:0.52916664;stroke-linecap:round;stroke-miterlimit:4;stroke-dasharray:none;stroke-opacity:1"
       id="path913"
       sodipodi:sides="5"
       sodipodi:cx="193.13486"
       sodipodi:cy="194.83199"
       sodipodi:r1="7.1279998"
       sodipodi:r2="3.5639999"
       sodipodi:arg1="1.5707963"
       sodipodi:arg2="2.1991149"
       inkscape:flatsided="false"
       inkscape:rounded="0.12"
       inkscape:randomized="0"
       d="m 193.13486,201.95999 c -0.56802,0 -1.63534,-3.9108 -2.09487,-4.24467 -0.45953,-0.33387 -4.50874,-0.14045 -4.68426,-0.68066 -0.17553,-0.54022 3.21404,-2.7638 3.38956,-3.30401 0.17553,-0.54022 -1.2597,-4.33147 -0.80017,-4.66534 0.45954,-0.33387 3.62172,2.20268 4.18974,2.20268 0.56801,0 3.7302,-2.53655 4.18973,-2.20268 0.45953,0.33387 -0.97569,4.12512 -0.80017,4.66534 0.17553,0.54021 3.56509,2.76379 3.38957,3.30401 -0.17553,0.54021 -4.22473,0.34679 -4.68427,0.68066 -0.45953,0.33387 -1.52685,4.24467 -2.09486,4.24467 z"
       inkscape:transform-center-x="2.433195e-06"
       inkscape:transform-center-y="0.66551723" />
    <path
       sodipodi:type="star"
       style="fill:#ffff00;fill-opacity:1;fill-rule:evenodd;stroke:none;stroke-width:0.52916664;stroke-linecap:round;stroke-miterlimit:4;stroke-dasharray:none;stroke-opacity:1"
       id="path915"
       sodipodi:sides="5"
       sodipodi:cx="18.329142"
       sodipodi:cy="57.023979"
       sodipodi:r1="2.2769558"
       sodipodi:r2="1.138478"
       sodipodi:arg1="0.46364761"
       sodipodi:arg2="1.0919661"
       inkscape:flatsided="false"
       inkscape:rounded="0.12"
       inkscape:randomized="0"
       d="m 20.365713,58.042265 c -0.08114,0.16229 -1.350988,-0.09145 -1.512028,-0.0078 -0.161039,0.0836 -0.684233,1.268146 -0.863655,1.241123 -0.179423,-0.02702 -0.330508,-1.313124 -0.45978,-1.440448 -0.129271,-0.127324 -1.417518,-0.258866 -1.447262,-0.437858 -0.02974,-0.178991 1.146723,-0.720109 1.227868,-0.882399 0.08114,-0.16229 -0.191841,-1.428134 -0.0308,-1.511734 0.16104,-0.0836 1.039221,0.868073 1.218644,0.895096 0.179422,0.02702 1.298954,-0.623769 1.428226,-0.496446 0.129272,0.127324 -0.504449,1.256608 -0.474705,1.435599 0.02974,0.178991 0.994639,1.042624 0.913494,1.204914 z"
       inkscape:transform-center-x="0.10264711"
       inkscape:transform-center-y="0.1129694" />
    <path
       sodipodi:type="star"
       style="fill:#ffff00;fill-opacity:1;fill-rule:evenodd;stroke:none;stroke-width:0.52916664;stroke-linecap:round;stroke-miterlimit:4;stroke-dasharray:none;stroke-opacity:1"
       id="path917"
       sodipodi:sides="5"
       sodipodi:cx="183.63086"
       sodipodi:cy="55.326839"
       sodipodi:r1="2.146735"
       sodipodi:r2="1.0733674"
       sodipodi:arg1="0.32175055"
       sodipodi:arg2="0.95006909"
       inkscape:flatsided="false"
       inkscape:rounded="0.12"
       inkscape:randomized="0"
       d="m 185.66743,56.005697 c -0.0541,0.16229 -1.27311,0.09478 -1.41227,0.194279 -0.13916,0.0995 -0.46953,1.274835 -0.6406,1.273537 -0.17106,-0.0013 -0.48355,-1.181516 -0.62118,-1.283116 -0.13763,-0.101599 -1.35754,-0.0526 -1.40916,-0.215698 -0.0516,-0.163092 0.97426,-0.824998 1.02835,-0.987288 0.0541,-0.16229 -0.36947,-1.307347 -0.23031,-1.406845 0.13916,-0.0995 1.08568,0.671638 1.25675,0.672937 0.17106,0.0013 1.12919,-0.755379 1.26682,-0.65378 0.13763,0.1016 -0.30328,1.240094 -0.25165,1.403187 0.0516,0.163092 1.06735,0.840497 1.01325,1.002787 z"
       inkscape:transform-center-x="0.0049374753"
       inkscape:transform-center-y="0.1957685" />
  </g>
</svg>
